<svg version="1.1" viewBox="0.0 0.0 960.0 540.0" fill="none" stroke="none" stroke-linecap="square" stroke-miterlimit="10" xmlns:xlink="http://www.w3.org/1999/xlink" xmlns="http://www.w3.org/2000/svg"><clipPath id="g277a5fb5749_2_41.0"><path d="m0 0l960.0 0l0 540.0l-960.0 0l0 -540.0z" clip-rule="nonzero"/></clipPath><g clip-path="url(#g277a5fb5749_2_41.0)"><path fill="#ffffff" d="m0 0l960.0 0l0 540.0l-960.0 0z" fill-rule="evenodd"/><path fill="#000000" fill-opacity="0.0" d="m36.198017 168.02234l198.36221 0l0 115.1496l-198.36221 0z" fill-rule="evenodd"/><path fill="#000000" d="m101.163925 183.38234l0 -11.453125l3.65625 0q1.8125 0 3.109375 0.734375q1.3125 0.71875 2.015625 2.015625q0.71875 1.296875 0.71875 2.96875q0 1.6875 -0.71875 2.984375q-0.703125 1.296875 -2.015625 2.03125q-1.296875 0.71875 -3.109375 0.71875l-3.65625 0zm1.765625 -1.65625l1.84375 0q1.296875 0 2.21875 -0.484375q0.9375 -0.5 1.421875 -1.40625q0.484375 -0.921875 0.484375 -2.1875q0 -1.25 -0.484375 -2.15625q-0.484375 -0.921875 -1.421875 -1.40625q-0.921875 -0.5 -2.21875 -0.5l-1.84375 0l0 8.140625zm12.951889 1.90625q-1.203125 0 -2.15625 -0.546875q-0.9375 -0.5625 -1.46875 -1.53125q-0.53125 -0.984375 -0.53125 -2.234375q0 -1.171875 0.5 -2.15625q0.515625 -1.0 1.4375 -1.59375q0.921875 -0.609375 2.125 -0.609375q1.265625 0 2.15625 0.546875q0.890625 0.546875 1.34375 1.5q0.46875 0.9375 0.46875 2.125q0 0.171875 -0.015625 0.3125q0 0.140625 -0.015625 0.21875l-7.03125 0l0 -1.296875l5.34375 0q-0.015625 -0.296875 -0.15625 -0.640625q-0.140625 -0.34375 -0.421875 -0.625q-0.265625 -0.296875 -0.6875 -0.46875q-0.40625 -0.1875 -0.96875 -0.1875q-0.703125 0 -1.25 0.359375q-0.546875 0.359375 -0.859375 1.0q-0.296875 0.640625 -0.296875 1.484375q0 0.921875 0.34375 1.546875q0.359375 0.625 0.9375 0.953125q0.578125 0.3125 1.25 0.3125q0.8125 0 1.359375 -0.375q0.5625 -0.375 0.890625 -0.9375l1.421875 0.6875q-0.53125 0.96875 -1.453125 1.5625q-0.90625 0.59375 -2.265625 0.59375zm4.6787567 -8.40625l5.140625 0l0 1.5l-5.140625 0l0 -1.5zm1.421875 5.78125l0 -8.09375l1.71875 0l0 7.734375q0 0.609375 0.25 0.9375q0.25 0.3125 0.84375 0.3125q0.28125 0 0.5 -0.078125q0.234375 -0.09375 0.453125 -0.234375l0 1.6875q-0.265625 0.109375 -0.578125 0.171875q-0.296875 0.0625 -0.703125 0.0625q-1.140625 0 -1.8125 -0.65625q-0.671875 -0.671875 -0.671875 -1.84375zm8.79538 2.625q-1.203125 0 -2.15625 -0.546875q-0.9375 -0.5625 -1.46875 -1.53125q-0.53125 -0.984375 -0.53125 -2.234375q0 -1.171875 0.5 -2.15625q0.515625 -1.0 1.4375 -1.59375q0.921875 -0.609375 2.125 -0.609375q1.265625 0 2.15625 0.546875q0.890625 0.546875 1.34375 1.5q0.46875 0.9375 0.46875 2.125q0 0.171875 -0.015625 0.3125q0 0.140625 -0.015625 0.21875l-7.03125 0l0 -1.296875l5.34375 0q-0.015625 -0.296875 -0.15625 -0.640625q-0.140625 -0.34375 -0.421875 -0.625q-0.265625 -0.296875 -0.6875 -0.46875q-0.40625 -0.1875 -0.96875 -0.1875q-0.703125 0 -1.25 0.359375q-0.546875 0.359375 -0.859375 1.0q-0.296875 0.640625 -0.296875 1.484375q0 0.921875 0.34375 1.546875q0.359375 0.625 0.9375 0.953125q0.578125 0.3125 1.25 0.3125q0.8125 0 1.359375 -0.375q0.5625 -0.375 0.890625 -0.9375l1.421875 0.6875q-0.53125 0.96875 -1.453125 1.5625q-0.90625 0.59375 -2.265625 0.59375zm9.326889 0q-1.234375 0 -2.1875 -0.546875q-0.953125 -0.5625 -1.484375 -1.546875q-0.53125 -0.984375 -0.53125 -2.234375q0 -1.25 0.53125 -2.21875q0.53125 -0.984375 1.484375 -1.546875q0.953125 -0.578125 2.1875 -0.578125q1.359375 0 2.296875 0.609375q0.9375 0.609375 1.34375 1.65625l-1.578125 0.640625q-0.28125 -0.65625 -0.828125 -0.984375q-0.53125 -0.328125 -1.265625 -0.328125q-0.671875 0 -1.234375 0.34375q-0.5625 0.34375 -0.90625 0.953125q-0.328125 0.609375 -0.328125 1.453125q0 0.828125 0.328125 1.453125q0.34375 0.625 0.90625 0.96875q0.5625 0.328125 1.234375 0.328125q0.78125 0 1.328125 -0.34375q0.546875 -0.359375 0.84375 -1.0l1.546875 0.671875q-0.453125 0.96875 -1.390625 1.609375q-0.9375 0.640625 -2.296875 0.640625zm4.5358887 -8.40625l5.140625 0l0 1.5l-5.140625 0l0 -1.5zm1.421875 5.78125l0 -8.09375l1.71875 0l0 7.734375q0 0.609375 0.25 0.9375q0.25 0.3125 0.84375 0.3125q0.28125 0 0.5 -0.078125q0.234375 -0.09375 0.453125 -0.234375l0 1.6875q-0.265625 0.109375 -0.578125 0.171875q-0.296875 0.0625 -0.703125 0.0625q-1.140625 0 -1.8125 -0.65625q-0.671875 -0.671875 -0.671875 -1.84375zm8.525391 2.625q-0.96875 0 -1.703125 -0.296875q-0.71875 -0.296875 -1.1875 -0.796875q-0.453125 -0.5 -0.671875 -1.09375l1.546875 -0.671875q0.28125 0.65625 0.8125 1.0q0.546875 0.34375 1.25 0.34375q0.640625 0 1.09375 -0.234375q0.46875 -0.234375 0.46875 -0.75q0 -0.34375 -0.21875 -0.5625q-0.203125 -0.21875 -0.5625 -0.359375q-0.359375 -0.140625 -0.828125 -0.25l-0.96875 -0.21875q-0.578125 -0.15625 -1.109375 -0.46875q-0.515625 -0.3125 -0.84375 -0.78125q-0.3125 -0.484375 -0.3125 -1.140625q0 -0.734375 0.421875 -1.265625q0.421875 -0.546875 1.140625 -0.828125q0.734375 -0.296875 1.5625 -0.296875q0.765625 0 1.390625 0.203125q0.640625 0.203125 1.109375 0.59375q0.46875 0.390625 0.75 0.96875l-1.5 0.671875q-0.265625 -0.546875 -0.734375 -0.75q-0.453125 -0.21875 -1.0 -0.21875q-0.609375 0 -1.015625 0.25q-0.40625 0.234375 -0.40625 0.640625q0 0.421875 0.359375 0.65625q0.359375 0.234375 0.890625 0.375l1.171875 0.296875q1.21875 0.296875 1.828125 0.921875q0.609375 0.609375 0.609375 1.5q0 0.78125 -0.453125 1.359375q-0.4375 0.578125 -1.203125 0.890625q-0.765625 0.3125 -1.6875 0.3125zm11.130157 0q-0.875 0 -1.5625 -0.34375q-0.671875 -0.359375 -1.0625 -0.96875q-0.390625 -0.625 -0.390625 -1.421875q0 -0.875 0.453125 -1.484375q0.453125 -0.609375 1.21875 -0.921875q0.765625 -0.328125 1.703125 -0.328125q0.515625 0 0.953125 0.078125q0.4375 0.0625 0.765625 0.171875q0.328125 0.09375 0.515625 0.203125l0 -0.4375q0 -0.796875 -0.578125 -1.265625q-0.5625 -0.484375 -1.484375 -0.484375q-0.625 0 -1.1875 0.28125q-0.546875 0.265625 -0.890625 0.75l-1.1875 -0.90625q0.359375 -0.5 0.859375 -0.84375q0.5 -0.359375 1.125 -0.546875q0.640625 -0.203125 1.328125 -0.203125q1.78125 0 2.734375 0.875q0.96875 0.875 0.96875 2.4375l0 5.109375l-1.6875 0l0 -1.015625l-0.09375 0q-0.203125 0.328125 -0.5625 0.625q-0.359375 0.28125 -0.859375 0.453125q-0.484375 0.1875 -1.078125 0.1875zm0.3125 -1.40625q0.671875 0 1.1875 -0.3125q0.515625 -0.328125 0.796875 -0.84375q0.296875 -0.515625 0.296875 -1.125q-0.34375 -0.203125 -0.859375 -0.34375q-0.5 -0.140625 -1.0625 -0.140625q-1.046875 0 -1.5 0.421875q-0.453125 0.40625 -0.453125 1.03125q0 0.578125 0.4375 0.953125q0.4375 0.359375 1.15625 0.359375z" fill-rule="nonzero"/><path fill="#000000" d="m112.65631 202.63234q-1.234375 0 -2.1875 -0.546875q-0.953125 -0.5625 -1.484375 -1.546875q-0.53125 -0.984375 -0.53125 -2.234375q0 -1.25 0.53125 -2.21875q0.53125 -0.984375 1.484375 -1.546875q0.953125 -0.578125 2.1875 -0.578125q1.359375 0 2.296875 0.609375q0.9375 0.609375 1.34375 1.65625l-1.578125 0.640625q-0.28125 -0.65625 -0.828125 -0.984375q-0.53125 -0.328125 -1.265625 -0.328125q-0.671875 0 -1.234375 0.34375q-0.5625 0.34375 -0.90625 0.953125q-0.328125 0.609375 -0.328125 1.453125q0 0.828125 0.328125 1.453125q0.34375 0.625 0.90625 0.96875q0.5625 0.328125 1.234375 0.328125q0.78125 0 1.328125 -0.34375q0.546875 -0.359375 0.84375 -1.0l1.546875 0.671875q-0.453125 0.96875 -1.390625 1.609375q-0.9375 0.640625 -2.296875 0.640625zm5.1783905 -0.25l0 -11.453125l1.71875 0l0 3.140625l-0.09375 1.265625l0.09375 0q0.34375 -0.578125 1.03125 -0.96875q0.703125 -0.40625 1.546875 -0.40625q1.03125 0 1.703125 0.421875q0.6875 0.421875 1.015625 1.15625q0.34375 0.71875 0.34375 1.6875l0 5.15625l-1.71875 0l0 -4.921875q0 -0.65625 -0.25 -1.078125q-0.25 -0.421875 -0.65625 -0.625q-0.390625 -0.203125 -0.890625 -0.203125q-0.625 0 -1.109375 0.359375q-0.46875 0.34375 -0.75 0.921875q-0.265625 0.5625 -0.265625 1.1875l0 4.359375l-1.71875 0zm11.794891 0.25q-0.875 0 -1.5625 -0.34375q-0.671875 -0.359375 -1.0625 -0.96875q-0.390625 -0.625 -0.390625 -1.421875q0 -0.875 0.453125 -1.484375q0.453125 -0.609375 1.21875 -0.921875q0.765625 -0.328125 1.703125 -0.328125q0.515625 0 0.953125 0.078125q0.4375 0.0625 0.765625 0.171875q0.328125 0.09375 0.515625 0.203125l0 -0.4375q0 -0.796875 -0.578125 -1.265625q-0.5625 -0.484375 -1.484375 -0.484375q-0.625 0 -1.1875 0.28125q-0.546875 0.265625 -0.890625 0.75l-1.1875 -0.90625q0.359375 -0.5 0.859375 -0.84375q0.5 -0.359375 1.125 -0.546875q0.640625 -0.203125 1.328125 -0.203125q1.78125 0 2.734375 0.875q0.96875 0.875 0.96875 2.4375l0 5.109375l-1.6875 0l0 -1.015625l-0.09375 0q-0.203125 0.328125 -0.5625 0.625q-0.359375 0.28125 -0.859375 0.453125q-0.484375 0.1875 -1.078125 0.1875zm0.3125 -1.40625q0.671875 0 1.1875 -0.3125q0.515625 -0.328125 0.796875 -0.84375q0.296875 -0.515625 0.296875 -1.125q-0.34375 -0.203125 -0.859375 -0.34375q-0.5 -0.140625 -1.0625 -0.140625q-1.046875 0 -1.5 0.421875q-0.453125 0.40625 -0.453125 1.03125q0 0.578125 0.4375 0.953125q0.4375 0.359375 1.15625 0.359375zm5.876648 1.15625l0 -8.15625l1.625 0l0 1.109375l0.09375 0q0.359375 -0.578125 1.046875 -0.96875q0.703125 -0.40625 1.53125 -0.40625q1.5 0 2.25 0.890625q0.75 0.890625 0.75 2.375l0 5.15625l-1.703125 0l0 -4.921875q0 -1.0 -0.5 -1.453125q-0.5 -0.453125 -1.296875 -0.453125q-0.625 0 -1.09375 0.34375q-0.453125 0.34375 -0.71875 0.90625q-0.265625 0.546875 -0.265625 1.1875l0 4.390625l-1.71875 0zm12.871887 3.71875q-1.078125 0 -1.859375 -0.34375q-0.765625 -0.34375 -1.25 -0.890625q-0.46875 -0.53125 -0.6875 -1.09375l1.609375 -0.671875q0.25 0.640625 0.8125 1.046875q0.578125 0.40625 1.375 0.40625q1.140625 0 1.78125 -0.671875q0.640625 -0.671875 0.640625 -1.90625l0 -0.78125l-0.09375 0q-0.390625 0.5625 -1.0625 0.921875q-0.671875 0.34375 -1.546875 0.34375q-1.046875 0 -1.921875 -0.515625q-0.875 -0.53125 -1.390625 -1.484375q-0.515625 -0.953125 -0.515625 -2.234375q0 -1.296875 0.515625 -2.25q0.515625 -0.953125 1.390625 -1.484375q0.875 -0.53125 1.921875 -0.53125q0.875 0 1.546875 0.34375q0.671875 0.34375 1.0625 0.9375l0.09375 0l0 -1.015625l1.640625 0l0 7.71875q0 1.328125 -0.515625 2.25q-0.515625 0.9375 -1.4375 1.421875q-0.90625 0.484375 -2.109375 0.484375zm0.015625 -5.203125q0.640625 0 1.1875 -0.3125q0.5625 -0.3125 0.890625 -0.90625q0.328125 -0.609375 0.328125 -1.453125q0 -0.90625 -0.328125 -1.484375q-0.328125 -0.59375 -0.890625 -0.890625q-0.546875 -0.3125 -1.1875 -0.3125q-0.640625 0 -1.203125 0.3125q-0.546875 0.296875 -0.890625 0.890625q-0.328125 0.59375 -0.328125 1.484375q0 0.859375 0.328125 1.46875q0.34375 0.59375 0.890625 0.90625q0.5625 0.296875 1.203125 0.296875zm9.711273 1.734375q-1.203125 0 -2.15625 -0.546875q-0.9375 -0.5625 -1.46875 -1.53125q-0.53125 -0.984375 -0.53125 -2.234375q0 -1.171875 0.5 -2.15625q0.515625 -1.0 1.4375 -1.59375q0.921875 -0.609375 2.125 -0.609375q1.265625 0 2.15625 0.546875q0.890625 0.546875 1.34375 1.5q0.46875 0.9375 0.46875 2.125q0 0.171875 -0.015625 0.3125q0 0.140625 -0.015625 0.21875l-7.03125 0l0 -1.296875l5.34375 0q-0.015625 -0.296875 -0.15625 -0.640625q-0.140625 -0.34375 -0.421875 -0.625q-0.265625 -0.296875 -0.6875 -0.46875q-0.40625 -0.1875 -0.96875 -0.1875q-0.703125 0 -1.25 0.359375q-0.546875 0.359375 -0.859375 1.0q-0.296875 0.640625 -0.296875 1.484375q0 0.921875 0.34375 1.546875q0.359375 0.625 0.9375 0.953125q0.578125 0.3125 1.25 0.3125q0.8125 0 1.359375 -0.375q0.5625 -0.375 0.890625 -0.9375l1.421875 0.6875q-0.53125 0.96875 -1.453125 1.5625q-0.90625 0.59375 -2.265625 0.59375z" fill-rule="nonzero"/><path fill="#4285f4" d="m89.556496 109.47916l0 0c0 -25.309425 20.517342 -45.826775 45.826775 -45.826775l0 0c12.154007 0 23.810226 4.828163 32.40442 13.422348c8.5941925 8.5941925 13.422348 20.250412 13.422348 32.404427l0 0c0 25.309418 -20.51735 45.826767 -45.826767 45.826767l0 0c-25.309433 0 -45.826775 -20.51735 -45.826775 -45.826767z" fill-rule="evenodd"/><path fill="#ffffff" d="m135.40189 124.74589l15.7274475 -12.588097l3.4987946 2.81073l-19.356293 15.1427765l-19.399658 -15.1427765l3.5421524 -2.6808014l15.987556 12.458168zm0.08670044 -5.4934387l-15.814156 -12.460075l-3.5421524 -2.81073l19.356308 -15.142784l19.399658 15.142784l-3.54216 2.81073l-15.857498 12.460075z" fill-rule="evenodd"/><path fill="#000000" fill-opacity="0.0" d="m265.42032 168.02234l198.36221 0l0 115.1496l-198.36221 0z" fill-rule="evenodd"/><path fill="#000000" d="m331.27423 183.38234l0 -11.453125l1.765625 0l0 11.453125l-1.765625 0zm4.0707703 0l0 -8.15625l1.625 0l0 1.109375l0.09375 0q0.359375 -0.578125 1.046875 -0.96875q0.703125 -0.40625 1.53125 -0.40625q1.5 0 2.25 0.890625q0.75 0.890625 0.75 2.375l0 5.15625l-1.703125 0l0 -4.921875q0 -1.0 -0.5 -1.453125q-0.5 -0.453125 -1.296875 -0.453125q-0.625 0 -1.09375 0.34375q-0.453125 0.34375 -0.71875 0.90625q-0.265625 0.546875 -0.265625 1.1875l0 4.390625l-1.71875 0zm9.404999 0l0 -8.15625l1.71875 0l0 8.15625l-1.71875 0zm0.859375 -9.359375q-0.484375 0 -0.828125 -0.34375q-0.34375 -0.34375 -0.34375 -0.828125q0 -0.5 0.34375 -0.828125q0.34375 -0.328125 0.828125 -0.328125q0.5 0 0.828125 0.328125q0.34375 0.328125 0.34375 0.828125q0 0.484375 -0.34375 0.828125q-0.328125 0.34375 -0.828125 0.34375zm2.3731384 1.203125l5.140625 0l0 1.5l-5.140625 0l0 -1.5zm1.421875 5.78125l0 -8.09375l1.71875 0l0 7.734375q0 0.609375 0.25 0.9375q0.25 0.3125 0.84375 0.3125q0.28125 0 0.5 -0.078125q0.234375 -0.09375 0.453125 -0.234375l0 1.6875q-0.265625 0.109375 -0.578125 0.171875q-0.296875 0.0625 -0.703125 0.0625q-1.140625 0 -1.8125 -0.65625q-0.671875 -0.671875 -0.671875 -1.84375zm5.601654 2.375l0 -8.15625l1.71875 0l0 8.15625l-1.71875 0zm0.859375 -9.359375q-0.484375 0 -0.828125 -0.34375q-0.34375 -0.34375 -0.34375 -0.828125q0 -0.5 0.34375 -0.828125q0.34375 -0.328125 0.828125 -0.328125q0.5 0 0.828125 0.328125q0.34375 0.328125 0.34375 0.828125q0 0.484375 -0.34375 0.828125q-0.328125 0.34375 -0.828125 0.34375zm5.4825134 9.609375q-0.875 0 -1.5625 -0.34375q-0.671875 -0.359375 -1.0625 -0.96875q-0.390625 -0.625 -0.390625 -1.421875q0 -0.875 0.453125 -1.484375q0.453125 -0.609375 1.21875 -0.921875q0.765625 -0.328125 1.703125 -0.328125q0.515625 0 0.953125 0.078125q0.4375 0.0625 0.765625 0.171875q0.328125 0.09375 0.515625 0.203125l0 -0.4375q0 -0.796875 -0.578125 -1.265625q-0.5625 -0.484375 -1.484375 -0.484375q-0.625 0 -1.1875 0.28125q-0.546875 0.265625 -0.890625 0.75l-1.1875 -0.90625q0.359375 -0.5 0.859375 -0.84375q0.5 -0.359375 1.125 -0.546875q0.640625 -0.203125 1.328125 -0.203125q1.78125 0 2.734375 0.875q0.96875 0.875 0.96875 2.4375l0 5.109375l-1.6875 0l0 -1.015625l-0.09375 0q-0.203125 0.328125 -0.5625 0.625q-0.359375 0.28125 -0.859375 0.453125q-0.484375 0.1875 -1.078125 0.1875zm0.3125 -1.40625q0.671875 0 1.1875 -0.3125q0.515625 -0.328125 0.796875 -0.84375q0.296875 -0.515625 0.296875 -1.125q-0.34375 -0.203125 -0.859375 -0.34375q-0.5 -0.140625 -1.0625 -0.140625q-1.046875 0 -1.5 0.421875q-0.453125 0.40625 -0.453125 1.03125q0 0.578125 0.4375 0.953125q0.4375 0.359375 1.15625 0.359375zm5.892273 1.15625l0 -11.453125l1.71875 0l0 11.453125l-1.71875 0zm3.885376 0l0 -8.15625l1.71875 0l0 8.15625l-1.71875 0zm0.859375 -9.359375q-0.484375 0 -0.828125 -0.34375q-0.34375 -0.34375 -0.34375 -0.828125q0 -0.5 0.34375 -0.828125q0.34375 -0.328125 0.828125 -0.328125q0.5 0 0.828125 0.328125q0.34375 0.328125 0.34375 0.828125q0 0.484375 -0.34375 0.828125q-0.328125 0.34375 -0.828125 0.34375zm2.59375 9.359375l0 -1.4375l4.546875 -5.21875l-4.40625 0l0 -1.5l6.515625 0l0 1.4375l-4.53125 5.21875l4.65625 0l0 1.5l-6.78125 0zm11.96463 0.25q-1.203125 0 -2.15625 -0.546875q-0.9375 -0.5625 -1.46875 -1.53125q-0.53125 -0.984375 -0.53125 -2.234375q0 -1.171875 0.5 -2.15625q0.515625 -1.0 1.4375 -1.59375q0.921875 -0.609375 2.125 -0.609375q1.265625 0 2.15625 0.546875q0.890625 0.546875 1.34375 1.5q0.46875 0.9375 0.46875 2.125q0 0.171875 -0.015625 0.3125q0 0.140625 -0.015625 0.21875l-7.03125 0l0 -1.296875l5.34375 0q-0.015625 -0.296875 -0.15625 -0.640625q-0.140625 -0.34375 -0.421875 -0.625q-0.265625 -0.296875 -0.6875 -0.46875q-0.40625 -0.1875 -0.96875 -0.1875q-0.703125 0 -1.25 0.359375q-0.546875 0.359375 -0.859375 1.0q-0.296875 0.640625 -0.296875 1.484375q0 0.921875 0.34375 1.546875q0.359375 0.625 0.9375 0.953125q0.578125 0.3125 1.25 0.3125q0.8125 0 1.359375 -0.375q0.5625 -0.375 0.890625 -0.9375l1.421875 0.6875q-0.53125 0.96875 -1.453125 1.5625q-0.90625 0.59375 -2.265625 0.59375zm8.529999 0q-0.96875 0 -1.703125 -0.296875q-0.7187195 -0.296875 -1.1874695 -0.796875q-0.453125 -0.5 -0.671875 -1.09375l1.546875 -0.671875q0.28121948 0.65625 0.8124695 1.0q0.546875 0.34375 1.25 0.34375q0.640625 0 1.09375 -0.234375q0.46875 -0.234375 0.46875 -0.75q0 -0.34375 -0.21875 -0.5625q-0.203125 -0.21875 -0.5625 -0.359375q-0.359375 -0.140625 -0.828125 -0.25l-0.96875 -0.21875q-0.578125 -0.15625 -1.1093445 -0.46875q-0.515625 -0.3125 -0.84375 -0.78125q-0.3125 -0.484375 -0.3125 -1.140625q0 -0.734375 0.421875 -1.265625q0.421875 -0.546875 1.1405945 -0.828125q0.734375 -0.296875 1.5625 -0.296875q0.765625 0 1.390625 0.203125q0.640625 0.203125 1.109375 0.59375q0.46875 0.390625 0.75 0.96875l-1.5 0.671875q-0.265625 -0.546875 -0.734375 -0.75q-0.453125 -0.21875 -1.0 -0.21875q-0.609375 0 -1.015625 0.25q-0.40625 0.234375 -0.40625 0.640625q0 0.421875 0.359375 0.65625q0.359375 0.234375 0.890625 0.375l1.171875 0.296875q1.21875 0.296875 1.828125 0.921875q0.609375 0.609375 0.609375 1.5q0 0.78125 -0.453125 1.359375q-0.4375 0.578125 -1.203125 0.890625q-0.765625 0.3125 -1.6875 0.3125z" fill-rule="nonzero"/><path fill="#000000" d="m344.63376 202.63234q-0.96875 0 -1.703125 -0.296875q-0.71875 -0.296875 -1.1875 -0.796875q-0.453125 -0.5 -0.671875 -1.09375l1.546875 -0.671875q0.28125 0.65625 0.8125 1.0q0.546875 0.34375 1.25 0.34375q0.640625 0 1.09375 -0.234375q0.46875 -0.234375 0.46875 -0.75q0 -0.34375 -0.21875 -0.5625q-0.203125 -0.21875 -0.5625 -0.359375q-0.359375 -0.140625 -0.828125 -0.25l-0.96875 -0.21875q-0.578125 -0.15625 -1.109375 -0.46875q-0.515625 -0.3125 -0.84375 -0.78125q-0.3125 -0.484375 -0.3125 -1.140625q0 -0.734375 0.421875 -1.265625q0.421875 -0.546875 1.140625 -0.828125q0.734375 -0.296875 1.5625 -0.296875q0.765625 0 1.390625 0.203125q0.640625 0.203125 1.109375 0.59375q0.46875 0.390625 0.75 0.96875l-1.5 0.671875q-0.265625 -0.546875 -0.734375 -0.75q-0.453125 -0.21875 -1.0 -0.21875q-0.609375 0 -1.015625 0.25q-0.40625 0.234375 -0.40625 0.640625q0 0.421875 0.359375 0.65625q0.359375 0.234375 0.890625 0.375l1.171875 0.296875q1.21875 0.296875 1.828125 0.921875q0.609375 0.609375 0.609375 1.5q0 0.78125 -0.453125 1.359375q-0.4375 0.578125 -1.203125 0.890625q-0.765625 0.3125 -1.6875 0.3125zm8.654022 0q-1.203125 0 -2.15625 -0.546875q-0.9375 -0.5625 -1.46875 -1.53125q-0.53125 -0.984375 -0.53125 -2.234375q0 -1.171875 0.5 -2.15625q0.515625 -1.0 1.4375 -1.59375q0.921875 -0.609375 2.125 -0.609375q1.265625 0 2.15625 0.546875q0.890625 0.546875 1.34375 1.5q0.46875 0.9375 0.46875 2.125q0 0.171875 -0.015625 0.3125q0 0.140625 -0.015625 0.21875l-7.03125 0l0 -1.296875l5.34375 0q-0.015625 -0.296875 -0.15625 -0.640625q-0.140625 -0.34375 -0.421875 -0.625q-0.265625 -0.296875 -0.6875 -0.46875q-0.40625 -0.1875 -0.96875 -0.1875q-0.703125 0 -1.25 0.359375q-0.546875 0.359375 -0.859375 1.0q-0.296875 0.640625 -0.296875 1.484375q0 0.921875 0.34375 1.546875q0.359375 0.625 0.9375 0.953125q0.578125 0.3125 1.25 0.3125q0.8125 0 1.359375 -0.375q0.5625 -0.375 0.890625 -0.9375l1.421875 0.6875q-0.53125 0.96875 -1.453125 1.5625q-0.90625 0.59375 -2.265625 0.59375zm5.481262 -0.25l0 -8.15625l1.625 0l0 1.203125l0.09375 0q0.1875 -0.421875 0.546875 -0.734375q0.359375 -0.328125 0.828125 -0.515625q0.484375 -0.203125 1.0 -0.203125q0.328125 0 0.5625 0.046875q0.234375 0.046875 0.421875 0.125l0 1.78125q-0.296875 -0.125 -0.609375 -0.203125q-0.3125 -0.078125 -0.65625 -0.078125q-0.609375 0 -1.078125 0.328125q-0.46875 0.328125 -0.75 0.875q-0.265625 0.546875 -0.265625 1.21875l0 4.3125l-1.71875 0zm9.156769 0l-3.375 -8.15625l1.921875 0l2.28125 5.9375l0.09375 0l2.328125 -5.9375l1.890625 0l-3.40625 8.15625l-1.734375 0zm9.746002 0.25q-1.203125 0 -2.15625 -0.546875q-0.9375 -0.5625 -1.46875 -1.53125q-0.53125 -0.984375 -0.53125 -2.234375q0 -1.171875 0.5 -2.15625q0.515625 -1.0 1.4375 -1.59375q0.921875 -0.609375 2.125 -0.609375q1.265625 0 2.15625 0.546875q0.890625 0.546875 1.34375 1.5q0.46875 0.9375 0.46875 2.125q0 0.171875 -0.015625 0.3125q0 0.140625 -0.015625 0.21875l-7.03125 0l0 -1.296875l5.34375 0q-0.015625 -0.296875 -0.15625 -0.640625q-0.140625 -0.34375 -0.421875 -0.625q-0.265625 -0.296875 -0.6875 -0.46875q-0.40625 -0.1875 -0.96875 -0.1875q-0.703125 0 -1.25 0.359375q-0.546875 0.359375 -0.859375 1.0q-0.296875 0.640625 -0.296875 1.484375q0 0.921875 0.34375 1.546875q0.359375 0.625 0.9375 0.953125q0.578125 0.3125 1.25 0.3125q0.8125 0 1.359375 -0.375q0.5625 -0.375 0.890625 -0.9375l1.421875 0.6875q-0.53125 0.96875 -1.453125 1.5625q-0.90625 0.59375 -2.265625 0.59375zm5.481262 -0.25l0 -8.15625l1.625 0l0 1.203125l0.09375 0q0.1875 -0.421875 0.546875 -0.734375q0.359375 -0.328125 0.828125 -0.515625q0.484375 -0.203125 1.0 -0.203125q0.328125 0 0.5625 0.046875q0.234375 0.046875 0.421875 0.125l0 1.78125q-0.296875 -0.125 -0.609375 -0.203125q-0.3125 -0.078125 -0.65625 -0.078125q-0.609375 0 -1.078125 0.328125q-0.46875 0.328125 -0.75 0.875q-0.265625 0.546875 -0.265625 1.21875l0 4.3125l-1.71875 0z" fill-rule="nonzero"/><path fill="#000000" fill-opacity="0.0" d="m443.84647 109.832794l64.97638 0" fill-rule="evenodd"/><path stroke="#083042" stroke-width="3.0" stroke-linejoin="round" stroke-linecap="butt" d="m443.84647 109.83279l46.97638 0" fill-rule="evenodd"/><path fill="#083042" stroke="#083042" stroke-width="3.0" stroke-linecap="butt" d="m490.82285 114.78799l13.614288 -4.9552l-13.614288 -4.9551926z" fill-rule="evenodd"/><path fill="#000000" fill-opacity="0.0" d="m494.64264 168.02234l198.36218 0l0 115.1496l-198.36218 0z" fill-rule="evenodd"/><path fill="#000000" d="m565.8086 183.38234l0 -11.453125l6.9375 0l0 1.65625l-5.171875 0l0 9.796875l-1.765625 0zm0.953125 -4.765625l0 -1.671875l5.484375 0l0 1.671875l-5.484375 0zm10.836365 5.015625q-1.203125 0 -2.15625 -0.546875q-0.9375 -0.5625 -1.46875 -1.53125q-0.53125 -0.984375 -0.53125 -2.234375q0 -1.171875 0.5 -2.15625q0.515625 -1.0 1.4375 -1.59375q0.921875 -0.609375 2.125 -0.609375q1.265625 0 2.15625 0.546875q0.890625 0.546875 1.34375 1.5q0.46875 0.9375 0.46875 2.125q0 0.171875 -0.015625 0.3125q0 0.140625 -0.015625 0.21875l-7.03125 0l0 -1.296875l5.34375 0q-0.015625 -0.296875 -0.15625 -0.640625q-0.140625 -0.34375 -0.421875 -0.625q-0.265625 -0.296875 -0.6875 -0.46875q-0.40625 -0.1875 -0.96875 -0.1875q-0.703125 0 -1.25 0.359375q-0.546875 0.359375 -0.859375 1.0q-0.296875 0.640625 -0.296875 1.484375q0 0.921875 0.34375 1.546875q0.359375 0.625 0.9375 0.953125q0.578125 0.3125 1.25 0.3125q0.8125 0 1.359375 -0.375q0.5625 -0.375 0.890625 -0.9375l1.421875 0.6875q-0.53125 0.96875 -1.453125 1.5625q-0.90625 0.59375 -2.265625 0.59375zm4.678772 -8.40625l5.140625 0l0 1.5l-5.140625 0l0 -1.5zm1.421875 5.78125l0 -8.09375l1.71875 0l0 7.734375q0 0.609375 0.25 0.9375q0.25 0.3125 0.84375 0.3125q0.28125 0 0.5 -0.078125q0.234375 -0.09375 0.453125 -0.234375l0 1.6875q-0.265625 0.109375 -0.578125 0.171875q-0.296875 0.0625 -0.703125 0.0625q-1.140625 0 -1.8125 -0.65625q-0.671875 -0.671875 -0.671875 -1.84375zm8.842224 2.625q-1.234375 0 -2.1875 -0.546875q-0.953125 -0.5625 -1.484375 -1.546875q-0.53125 -0.984375 -0.53125 -2.234375q0 -1.25 0.53125 -2.21875q0.53125 -0.984375 1.484375 -1.546875q0.953125 -0.578125 2.1875 -0.578125q1.359375 0 2.296875 0.609375q0.9375 0.609375 1.34375 1.65625l-1.578125 0.640625q-0.28125 -0.65625 -0.828125 -0.984375q-0.53125 -0.328125 -1.265625 -0.328125q-0.671875 0 -1.234375 0.34375q-0.5625 0.34375 -0.90625 0.953125q-0.328125 0.609375 -0.328125 1.453125q0 0.828125 0.328125 1.453125q0.34375 0.625 0.90625 0.96875q0.5625 0.328125 1.234375 0.328125q0.78125 0 1.328125 -0.34375q0.546875 -0.359375 0.84375 -1.0l1.546875 0.671875q-0.453125 0.96875 -1.390625 1.609375q-0.9375 0.640625 -2.296875 0.640625zm5.178406 -0.25l0 -11.453125l1.71875 0l0 3.140625l-0.09375 1.265625l0.09375 0q0.34375 -0.578125 1.03125 -0.96875q0.703125 -0.40625 1.546875 -0.40625q1.03125 0 1.703125 0.421875q0.6875 0.421875 1.015625 1.15625q0.34375 0.71875 0.34375 1.6875l0 5.15625l-1.71875 0l0 -4.921875q0 -0.65625 -0.25 -1.078125q-0.25 -0.421875 -0.65625 -0.625q-0.390625 -0.203125 -0.890625 -0.203125q-0.625 0 -1.109375 0.359375q-0.46875 0.34375 -0.75 0.921875q-0.265625 0.5625 -0.265625 1.1875l0 4.359375l-1.71875 0zm13.046753 0.25q-1.203125 0 -2.15625 -0.546875q-0.9375 -0.5625 -1.46875 -1.53125q-0.53125 -0.984375 -0.53125 -2.234375q0 -1.171875 0.5 -2.15625q0.515625 -1.0 1.4375 -1.59375q0.921875 -0.609375 2.125 -0.609375q1.265625 0 2.15625 0.546875q0.890625 0.546875 1.34375 1.5q0.46875 0.9375 0.46875 2.125q0 0.171875 -0.015625 0.3125q0 0.140625 -0.015625 0.21875l-7.03125 0l0 -1.296875l5.34375 0q-0.015625 -0.296875 -0.15625 -0.640625q-0.140625 -0.34375 -0.421875 -0.625q-0.265625 -0.296875 -0.6875 -0.46875q-0.40625 -0.1875 -0.96875 -0.1875q-0.703125 0 -1.25 0.359375q-0.546875 0.359375 -0.859375 1.0q-0.296875 0.640625 -0.296875 1.484375q0 0.921875 0.34375 1.546875q0.359375 0.625 0.9375 0.953125q0.578125 0.3125 1.25 0.3125q0.8125 0 1.359375 -0.375q0.5625 -0.375 0.890625 -0.9375l1.421875 0.6875q-0.53125 0.96875 -1.453125 1.5625q-0.90625 0.59375 -2.265625 0.59375zm8.530029 0q-0.96875 0 -1.703125 -0.296875q-0.71875 -0.296875 -1.1875 -0.796875q-0.453125 -0.5 -0.671875 -1.09375l1.546875 -0.671875q0.28125 0.65625 0.8125 1.0q0.546875 0.34375 1.25 0.34375q0.640625 0 1.09375 -0.234375q0.46875 -0.234375 0.46875 -0.75q0 -0.34375 -0.21875 -0.5625q-0.203125 -0.21875 -0.5625 -0.359375q-0.359375 -0.140625 -0.828125 -0.25l-0.96875 -0.21875q-0.578125 -0.15625 -1.109375 -0.46875q-0.515625 -0.3125 -0.84375 -0.78125q-0.3125 -0.484375 -0.3125 -1.140625q0 -0.734375 0.421875 -1.265625q0.421875 -0.546875 1.140625 -0.828125q0.734375 -0.296875 1.5625 -0.296875q0.765625 0 1.390625 0.203125q0.640625 0.203125 1.109375 0.59375q0.46875 0.390625 0.75 0.96875l-1.5 0.671875q-0.265625 -0.546875 -0.734375 -0.75q-0.453125 -0.21875 -1.0 -0.21875q-0.609375 0 -1.015625 0.25q-0.40625 0.234375 -0.40625 0.640625q0 0.421875 0.359375 0.65625q0.359375 0.234375 0.890625 0.375l1.171875 0.296875q1.21875 0.296875 1.828125 0.921875q0.609375 0.609375 0.609375 1.5q0 0.78125 -0.453125 1.359375q-0.4375 0.578125 -1.203125 0.890625q-0.765625 0.3125 -1.6875 0.3125z" fill-rule="nonzero"/><path fill="#000000" d="m564.0449 202.63234q-1.234375 0 -2.1875 -0.546875q-0.953125 -0.5625 -1.484375 -1.546875q-0.53125 -0.984375 -0.53125 -2.234375q0 -1.25 0.53125 -2.21875q0.53125 -0.984375 1.484375 -1.546875q0.953125 -0.578125 2.1875 -0.578125q1.359375 0 2.296875 0.609375q0.9375 0.609375 1.34375 1.65625l-1.578125 0.640625q-0.28125 -0.65625 -0.828125 -0.984375q-0.53125 -0.328125 -1.265625 -0.328125q-0.671875 0 -1.234375 0.34375q-0.5625 0.34375 -0.90625 0.953125q-0.328125 0.609375 -0.328125 1.453125q0 0.828125 0.328125 1.453125q0.34375 0.625 0.90625 0.96875q0.5625 0.328125 1.234375 0.328125q0.78125 0 1.328125 -0.34375q0.546875 -0.359375 0.84375 -1.0l1.546875 0.671875q-0.453125 0.96875 -1.390625 1.609375q-0.9375 0.640625 -2.296875 0.640625zm8.926514 0q-1.265625 0 -2.234375 -0.5625q-0.953125 -0.578125 -1.5 -1.5625q-0.53125 -0.984375 -0.53125 -2.203125q0 -1.21875 0.53125 -2.203125q0.546875 -0.984375 1.5 -1.5625q0.96875 -0.578125 2.234375 -0.578125q1.25 0 2.203125 0.59375q0.96875 0.578125 1.515625 1.5625q0.546875 0.96875 0.546875 2.1875q0 1.21875 -0.546875 2.203125q-0.546875 0.984375 -1.515625 1.5625q-0.953125 0.5625 -2.203125 0.5625zm0 -1.578125q0.671875 0 1.25 -0.328125q0.578125 -0.328125 0.9375 -0.9375q0.359375 -0.625 0.359375 -1.484375q0 -0.859375 -0.359375 -1.46875q-0.359375 -0.625 -0.9375 -0.953125q-0.578125 -0.328125 -1.25 -0.328125q-0.671875 0 -1.25 0.328125q-0.578125 0.328125 -0.953125 0.953125q-0.359375 0.609375 -0.359375 1.46875q0 0.859375 0.359375 1.484375q0.375 0.609375 0.953125 0.9375q0.59375 0.328125 1.25 0.328125zm9.336304 1.578125q-1.109375 0 -2.015625 -0.546875q-0.890625 -0.5625 -1.40625 -1.53125q-0.5 -0.984375 -0.5 -2.25q0 -1.265625 0.5 -2.234375q0.515625 -0.984375 1.40625 -1.546875q0.90625 -0.5625 2.015625 -0.5625q0.640625 0 1.140625 0.203125q0.515625 0.1875 0.890625 0.5q0.375 0.3125 0.59375 0.65625l0.09375 0l-0.09375 -1.125l0 -3.265625l1.703125 0l0 11.453125l-1.609375 0l0 -1.09375l-0.09375 0q-0.21875 0.34375 -0.59375 0.65625q-0.375 0.3125 -0.890625 0.5q-0.5 0.1875 -1.140625 0.1875zm0.25 -1.578125q0.640625 0 1.203125 -0.328125q0.578125 -0.34375 0.921875 -0.953125q0.34375 -0.625 0.34375 -1.46875q0 -0.84375 -0.34375 -1.453125q-0.34375 -0.625 -0.921875 -0.953125q-0.5625 -0.34375 -1.203125 -0.34375q-0.640625 0 -1.203125 0.34375q-0.5625 0.328125 -0.921875 0.953125q-0.34375 0.609375 -0.34375 1.453125q0 0.828125 0.34375 1.453125q0.359375 0.625 0.921875 0.96875q0.5625 0.328125 1.203125 0.328125zm9.760376 1.578125q-1.203125 0 -2.15625 -0.546875q-0.9375 -0.5625 -1.46875 -1.53125q-0.53125 -0.984375 -0.53125 -2.234375q0 -1.171875 0.5 -2.15625q0.515625 -1.0 1.4375 -1.59375q0.921875 -0.609375 2.125 -0.609375q1.265625 0 2.15625 0.546875q0.890625 0.546875 1.34375 1.5q0.46875 0.9375 0.46875 2.125q0 0.171875 -0.015625 0.3125q0 0.140625 -0.015625 0.21875l-7.03125 0l0 -1.296875l5.34375 0q-0.015625 -0.296875 -0.15625 -0.640625q-0.140625 -0.34375 -0.421875 -0.625q-0.265625 -0.296875 -0.6875 -0.46875q-0.40625 -0.1875 -0.96875 -0.1875q-0.703125 0 -1.25 0.359375q-0.546875 0.359375 -0.859375 1.0q-0.296875 0.640625 -0.296875 1.484375q0 0.921875 0.34375 1.546875q0.359375 0.625 0.9375 0.953125q0.578125 0.3125 1.25 0.3125q0.8125 0 1.359375 -0.375q0.5625 -0.375 0.890625 -0.9375l1.421875 0.6875q-0.53125 0.96875 -1.453125 1.5625q-0.90625 0.59375 -2.265625 0.59375zm11.756165 0q-0.875 0 -1.5625 -0.34375q-0.671875 -0.359375 -1.0625 -0.96875q-0.390625 -0.625 -0.390625 -1.421875q0 -0.875 0.453125 -1.484375q0.453125 -0.609375 1.21875 -0.921875q0.765625 -0.328125 1.703125 -0.328125q0.515625 0 0.953125 0.078125q0.4375 0.0625 0.765625 0.171875q0.328125 0.09375 0.515625 0.203125l0 -0.4375q0 -0.796875 -0.578125 -1.265625q-0.5625 -0.484375 -1.484375 -0.484375q-0.625 0 -1.1875 0.28125q-0.546875 0.265625 -0.890625 0.75l-1.1875 -0.90625q0.359375 -0.5 0.859375 -0.84375q0.5 -0.359375 1.125 -0.546875q0.640625 -0.203125 1.328125 -0.203125q1.78125 0 2.734375 0.875q0.96875 0.875 0.96875 2.4375l0 5.109375l-1.6875 0l0 -1.015625l-0.09375 0q-0.203125 0.328125 -0.5625 0.625q-0.359375 0.28125 -0.859375 0.453125q-0.484375 0.1875 -1.078125 0.1875zm0.3125 -1.40625q0.671875 0 1.1875 -0.3125q0.515625 -0.328125 0.796875 -0.84375q0.296875 -0.515625 0.296875 -1.125q-0.34375 -0.203125 -0.859375 -0.34375q-0.5 -0.140625 -1.0625 -0.140625q-1.046875 0 -1.5 0.421875q-0.453125 0.40625 -0.453125 1.03125q0 0.578125 0.4375 0.953125q0.4375 0.359375 1.15625 0.359375zm5.876648 1.15625l0 -8.15625l1.625 0l0 1.109375l0.09375 0q0.359375 -0.578125 1.046875 -0.96875q0.703125 -0.40625 1.53125 -0.40625q1.5 0 2.25 0.890625q0.75 0.890625 0.75 2.375l0 5.15625l-1.703125 0l0 -4.921875q0 -1.0 -0.5 -1.453125q-0.5 -0.453125 -1.296875 -0.453125q-0.625 0 -1.09375 0.34375q-0.453125 0.34375 -0.71875 0.90625q-0.265625 0.546875 -0.265625 1.1875l0 4.390625l-1.71875 0zm12.764343 0.25q-1.109375 0 -2.015625 -0.546875q-0.890625 -0.5625 -1.40625 -1.53125q-0.5 -0.984375 -0.5 -2.25q0 -1.265625 0.5 -2.234375q0.515625 -0.984375 1.40625 -1.546875q0.90625 -0.5625 2.015625 -0.5625q0.640625 0 1.140625 0.203125q0.515625 0.1875 0.890625 0.5q0.375 0.3125 0.59375 0.65625l0.09375 0l-0.09375 -1.125l0 -3.265625l1.703125 0l0 11.453125l-1.609375 0l0 -1.09375l-0.09375 0q-0.21875 0.34375 -0.59375 0.65625q-0.375 0.3125 -0.890625 0.5q-0.5 0.1875 -1.140625 0.1875zm0.25 -1.578125q0.640625 0 1.203125 -0.328125q0.578125 -0.34375 0.921875 -0.953125q0.34375 -0.625 0.34375 -1.46875q0 -0.84375 -0.34375 -1.453125q-0.34375 -0.625 -0.921875 -0.953125q-0.5625 -0.34375 -1.203125 -0.34375q-0.640625 0 -1.203125 0.34375q-0.5625 0.328125 -0.921875 0.953125q-0.34375 0.609375 -0.34375 1.453125q0 0.828125 0.34375 1.453125q0.359375 0.625 0.921875 0.96875q0.5625 0.328125 1.203125 0.328125z" fill-rule="nonzero"/><path fill="#000000" d="m575.9088 213.22609l5.140625 0l0 1.5l-5.140625 0l0 -1.5zm1.421875 5.78125l0 -8.09375l1.71875 0l0 7.734375q0 0.609375 0.25 0.9375q0.25 0.3125 0.84375 0.3125q0.28125 0 0.5 -0.078125q0.234375 -0.09375 0.453125 -0.234375l0 1.6875q-0.265625 0.109375 -0.578125 0.171875q-0.296875 0.0625 -0.703125 0.0625q-1.140625 0 -1.8125 -0.65625q-0.671875 -0.671875 -0.671875 -1.84375zm8.904785 2.625q-1.265625 0 -2.234375 -0.5625q-0.953125 -0.578125 -1.5 -1.5625q-0.53125 -0.984375 -0.53125 -2.203125q0 -1.21875 0.53125 -2.203125q0.546875 -0.984375 1.5 -1.5625q0.96875 -0.578125 2.234375 -0.578125q1.25 0 2.203125 0.59375q0.96875 0.578125 1.515625 1.5625q0.546875 0.96875 0.546875 2.1875q0 1.21875 -0.546875 2.203125q-0.546875 0.984375 -1.515625 1.5625q-0.953125 0.5625 -2.203125 0.5625zm0 -1.578125q0.671875 0 1.25 -0.328125q0.578125 -0.328125 0.9375 -0.9375q0.359375 -0.625 0.359375 -1.484375q0 -0.859375 -0.359375 -1.46875q-0.359375 -0.625 -0.9375 -0.953125q-0.578125 -0.328125 -1.25 -0.328125q-0.671875 0 -1.25 0.328125q-0.578125 0.328125 -0.953125 0.953125q-0.359375 0.609375 -0.359375 1.46875q0 0.859375 0.359375 1.484375q0.375 0.609375 0.953125 0.9375q0.59375 0.328125 1.25 0.328125zm9.679993 1.578125q-1.265625 0 -2.234375 -0.5625q-0.953125 -0.578125 -1.5 -1.5625q-0.53125 -0.984375 -0.53125 -2.203125q0 -1.21875 0.53125 -2.203125q0.546875 -0.984375 1.5 -1.5625q0.96875 -0.578125 2.234375 -0.578125q1.25 0 2.203125 0.59375q0.96875 0.578125 1.515625 1.5625q0.546875 0.96875 0.546875 2.1875q0 1.21875 -0.546875 2.203125q-0.546875 0.984375 -1.515625 1.5625q-0.953125 0.5625 -2.203125 0.5625zm0 -1.578125q0.671875 0 1.25 -0.328125q0.578125 -0.328125 0.9375 -0.9375q0.359375 -0.625 0.359375 -1.484375q0 -0.859375 -0.359375 -1.46875q-0.359375 -0.625 -0.9375 -0.953125q-0.578125 -0.328125 -1.25 -0.328125q-0.671875 0 -1.25 0.328125q-0.578125 0.328125 -0.953125 0.953125q-0.359375 0.609375 -0.359375 1.46875q0 0.859375 0.359375 1.484375q0.375 0.609375 0.953125 0.9375q0.59375 0.328125 1.25 0.328125zm5.7875366 1.328125l0 -11.453125l1.71875 0l0 11.453125l-1.71875 0zm6.649109 0.25q-0.96875 0 -1.703125 -0.296875q-0.71875 -0.296875 -1.1875 -0.796875q-0.453125 -0.5 -0.671875 -1.09375l1.546875 -0.671875q0.28125 0.65625 0.8125 1.0q0.546875 0.34375 1.25 0.34375q0.640625 0 1.09375 -0.234375q0.46875 -0.234375 0.46875 -0.75q0 -0.34375 -0.21875 -0.5625q-0.203125 -0.21875 -0.5625 -0.359375q-0.359375 -0.140625 -0.828125 -0.25l-0.96875 -0.21875q-0.578125 -0.15625 -1.109375 -0.46875q-0.515625 -0.3125 -0.84375 -0.78125q-0.3125 -0.484375 -0.3125 -1.140625q0 -0.734375 0.421875 -1.265625q0.421875 -0.546875 1.140625 -0.828125q0.734375 -0.296875 1.5625 -0.296875q0.765625 0 1.390625 0.203125q0.640625 0.203125 1.109375 0.59375q0.46875 0.390625 0.75 0.96875l-1.5 0.671875q-0.265625 -0.546875 -0.734375 -0.75q-0.453125 -0.21875 -1.0 -0.21875q-0.609375 0 -1.015625 0.25q-0.40625 0.234375 -0.40625 0.640625q0 0.421875 0.359375 0.65625q0.359375 0.234375 0.890625 0.375l1.171875 0.296875q1.21875 0.296875 1.828125 0.921875q0.609375 0.609375 0.609375 1.5q0 0.78125 -0.453125 1.359375q-0.4375 0.578125 -1.203125 0.890625q-0.765625 0.3125 -1.6875 0.3125z" fill-rule="nonzero"/><path fill="#000000" fill-opacity="0.0" d="m219.06393 109.92296l64.97638 0" fill-rule="evenodd"/><path stroke="#083042" stroke-width="3.0" stroke-linejoin="round" stroke-linecap="butt" d="m219.06393 109.92296l46.97638 0" fill-rule="evenodd"/><path fill="#083042" stroke="#083042" stroke-width="3.0" stroke-linecap="butt" d="m266.0403 114.87816l13.614288 -4.9552l-13.614288 -4.9551926z" fill-rule="evenodd"/><path fill="#4285f4" d="m543.5419 109.462074l0 0c0 -25.306717 20.515137 -45.821865 45.8219 -45.821865l0 0c12.15271 0 23.807678 4.827648 32.40094 13.42091c8.593262 8.593269 13.420898 20.248245 13.420898 32.400955l0 0c0 25.306725 -20.515137 45.821877 -45.82184 45.821877l0 0c-25.306763 0 -45.8219 -20.515152 -45.8219 -45.821877z" fill-rule="evenodd"/><path fill="#ffffff" d="m586.60724 84.72955l0 23.876534l-7.1448364 -7.1097336l-3.8765259 3.8780365l13.719727 13.763229l13.757629 -13.763229l-3.83844 -3.8780365l-7.1448975 7.1097336l0 -23.876534zm-16.494019 0.038017273c-3.0403442 0 -5.510681 2.433281 -5.510681 5.4368515l0 38.552246c0.038024902 3.0035706 2.470337 5.474869 5.510681 5.474869l38.49872 0c3.0403442 0 5.4726562 -2.4712982 5.510681 -5.474869l0 -38.552246c0 -3.0035706 -2.470337 -5.4368515 -5.510681 -5.4368515l-10.983337 0l0 5.4368515l10.983337 0l0 38.552246l-38.49872 0l0 -38.552246l10.983337 0l0 -5.4368515z" fill-rule="evenodd"/><path fill="#4285f4" d="m318.1191 341.48444l0 0c0 -25.306732 20.515167 -45.82187 45.82187 -45.82187l0 0c12.1527405 0 23.807709 4.8276367 32.40097 13.420929c8.593262 8.593262 13.420898 20.24823 13.420898 32.40094l0 0c0 25.306732 -20.515137 45.82187 -45.82187 45.82187l0 0c-25.306702 0 -45.82187 -20.515137 -45.82187 -45.82187z" fill-rule="evenodd"/><path fill="#ffffff" d="m378.91556 314.93878l0 2.876068l-29.95633 0l0 -2.876068zm-27.080261 11.983643l0 5.989044l23.967255 0l0 -5.989044zm27.080261 -3.1184998l0 35.945374l-29.95633 0l0 -35.945374zm0 41.93994l0 3.1130066l-29.95633 0l0 -3.1130066zm-29.95633 -56.79416c-3.3499146 0 -5.9890747 2.633667 -5.9890747 5.9890747l0 53.91809c0 3.1184998 2.6391602 5.989044 5.9890747 5.989044l29.95633 0c3.1184998 0 5.989044 -2.8705444 5.989044 -5.989044l0 -53.91809c0 -3.3554077 -2.8705444 -5.9890747 -5.989044 -5.9890747z" fill-rule="evenodd"/><path fill="#4285f4" d="m89.50218 341.70718l0 0c0 -25.306702 20.515152 -45.82187 45.82187 -45.82187l0 0c12.15271 0 23.807678 4.827667 32.400955 13.420929c8.593262 8.593262 13.420914 20.24823 13.420914 32.40094l0 0c0 25.306732 -20.515152 45.82187 -45.82187 45.82187l0 0c-25.306717 0 -45.82187 -20.515137 -45.82187 -45.82187z" fill-rule="evenodd"/><path fill="#ffffff" d="m149.7 321.96707l-22.054726 22.098816l-6.701515 -6.704132l-3.5457764 3.5826416l10.247292 10.286774l25.671425 -25.681458l-3.6166992 -3.5826416zm-32.33747 34.40747l0 5.0724487l35.95417 0l0 -5.0724487z" fill-rule="evenodd"/><path fill="#4285f4" d="m777.8683 341.49133l0 0c0 -25.306732 20.515137 -45.82187 45.8219 -45.82187l0 0c12.15271 0 23.807678 4.8276367 32.40094 13.420898c8.593262 8.593292 13.420898 20.24826 13.420898 32.40097l0 0c0 25.306702 -20.515137 45.82187 -45.82184 45.82187l0 0c-25.306763 0 -45.8219 -20.515167 -45.8219 -45.82187z" fill-rule="evenodd"/><path fill="#ffffff" d="m839.74335 321.9857l2.2686768 2.8082886l-36.64508 0l2.307129 -2.8082886zm-16.07306 12.541168l-11.112732 11.1562805l3.9605713 3.9239197l4.422058 -4.4240417l0 10.232971l5.5371094 0l0 -10.232971l4.421997 4.4240417l3.9606323 -3.9239197l-11.189636 -11.1562805zm19.4953 -4.193207l0 30.660492l-38.95221 0l0 -30.660492zm-2.6531982 -13.849152c-0.0769043 0 -0.115356445 0 -0.1538086 0l-33.376648 0c-1.2304688 0 -2.4224854 0.5001221 -3.2299805 1.461853l-3.8067627 4.693329c-0.84594727 1.0002136 -1.307373 2.2697144 -1.307373 3.539215l0 34.776764c0.03845215 3.0775757 2.4993896 5.539673 5.5755615 5.578125l38.95221 0c2.9993286 -0.03845215 5.4987183 -2.5005493 5.4987183 -5.578125l0 -34.776764c0.03845215 -1.2695007 -0.38452148 -2.5774841 -1.2304688 -3.539215l0.03845215 0l-3.883667 -4.693329c-0.769104 -0.9232788 -1.8842163 -1.461853 -3.076233 -1.461853z" fill-rule="evenodd"/><path fill="#4285f4" d="m317.47894 109.4744l0 0c0 -25.307251 20.515564 -45.822834 45.822815 -45.822834l0 0c12.152985 0 23.808197 4.8277473 32.40164 13.4212c8.593445 8.593445 13.421204 20.248665 13.421204 32.401634l0 0c0 25.307259 -20.515594 45.822838 -45.822845 45.822838l0 0c-25.307251 0 -45.822815 -20.51558 -45.822815 -45.822838z" fill-rule="evenodd"/><path fill="#ffffff" d="m380.29907 111.5914l-33.992218 0c-1.1391907 0 -2.1984253 0.8973541 -2.1984253 2.161003l0 12.71489c0 1.1817551 0.93640137 2.2003555 2.1984253 2.2003555l33.992218 0c1.1392212 0 2.198761 -0.8957596 2.198761 -2.2003555l0 -12.71489c0 -1.1408005 -1.0595398 -2.161003 -2.198761 -2.161003zm-27.682892 12.837418c-2.2784119 0 -4.2333984 -1.9552994 -4.2333984 -4.2372284c0 -2.3228836 1.914032 -4.2388306 4.2333984 -4.2388306c2.280304 0 4.2743225 1.915947 4.2743225 4.2388306c0 2.281929 -1.8714905 4.2372284 -4.2743225 4.2372284zm27.682892 -34.150574l-33.992218 0c-1.1391907 0 -2.1984253 0.9363861 -2.1984253 2.200035l0 12.7558365c0 1.1817551 0.93640137 2.20195 2.1984253 2.20195l33.992218 0c1.1392212 0 2.198761 -0.9383011 2.198761 -2.20195l0 -12.7558365c0 -1.1408081 -1.0595398 -2.200035 -2.198761 -2.200035zm-27.682892 12.796471c-2.2784119 0 -4.2333984 -1.9978485 -4.2333984 -4.2797775c0 -2.3228836 1.914032 -4.237236 4.2333984 -4.237236c2.280304 0 4.2743225 1.9143524 4.2743225 4.237236c0 2.281929 -1.8714905 4.2797775 -4.2743225 4.2797775z" fill-rule="evenodd"/><path fill="#4285f4" d="m777.19495 109.45692l0 0c0 -25.306717 20.515198 -45.821865 45.8219 -45.821865l0 0c12.15271 0 23.807678 4.827648 32.40094 13.4209175c8.593262 8.593262 13.420898 20.248238 13.420898 32.400948l0 0c0 25.306725 -20.515137 45.821877 -45.82184 45.821877l0 0c-25.306702 0 -45.8219 -20.515152 -45.8219 -45.821877z" fill-rule="evenodd"/><path fill="#ffffff" d="m832.77155 112.39468l-5.2335815 5.2335815l15.084045 15.075462l5.2250366 -5.2250214l-15.0755005 -15.0840225z" fill-rule="evenodd"/><path fill="#ffffff" d="m817.71375 86.20988c-1.935791 0 -3.8459473 0.7537689 -5.2506714 2.2613144l-8.848267 8.848267l3.4176636 3.4176788l-7.0323486 0l-1.807373 1.8073425l8.839722 8.848267l1.807312 -1.8073425l0 -7.040924l3.623291 3.6232452l1.807312 -1.8159027l4.428406 4.4284134l-18.69867 18.698715l5.421997 5.2250137l28.549194 -28.549156c0.80511475 0.4025879 1.8158569 0.5995941 2.8180542 0.5995941c4.8224487 0 8.848267 -4.0172653 8.848267 -8.839699c0 -1.4133224 -0.4025879 -2.8180847 -1.0107422 -4.025833l-6.835327 6.83535l-3.8202515 -3.820259l6.835327 -6.83535c-1.1992188 -0.5995941 -2.6124878 -1.0021744 -4.017273 -1.0021744c-4.8224487 0 -8.848267 4.0172653 -8.848267 8.848267c0.2055664 1.0021744 0.2055664 2.0043488 0.6081543 2.809517l-4.6254272 4.8310013l-4.428406 -4.428421l1.815918 -1.8073425l-3.623291 -3.6146774l5.430603 -5.233589c-1.5075073 -1.5075455 -3.4690552 -2.2613144 -5.404907 -2.2613144z" fill-rule="evenodd"/><path fill="#000000" fill-opacity="0.0" d="m673.7166 109.47547l64.97638 0" fill-rule="evenodd"/><path stroke="#083042" stroke-width="3.0" stroke-linejoin="round" stroke-linecap="butt" d="m673.7166 109.47548l46.97638 0" fill-rule="evenodd"/><path fill="#083042" stroke="#083042" stroke-width="3.0" stroke-linecap="butt" d="m720.693 114.43067l13.614319 -4.9551926l-13.614319 -4.9552z" fill-rule="evenodd"/><path fill="#4285f4" d="m542.90686 341.50674l0 0c0 -25.306702 20.515137 -45.82187 45.82184 -45.82187l0 0c12.15271 0 23.807678 4.8276367 32.40094 13.420929c8.593262 8.593262 13.420959 20.24823 13.420959 32.40094l0 0c0 25.306732 -20.515198 45.82187 -45.8219 45.82187l0 0c-25.306702 0 -45.82184 -20.515137 -45.82184 -45.82187z" fill-rule="evenodd"/><path fill="#ffffff" d="m609.7039 340.60056c-0.036254883 -2.863617 -2.3549194 -5.183502 -5.253174 -5.183502c-3.1157227 0 -5.21698 2.573639 -5.21698 5.2559814c0 1.2686768 0.4710083 2.5736084 1.5216064 3.624817c3.3330688 3.298584 8.948547 0.97869873 8.948547 -3.6972961zm-15.723328 0c-0.036193848 -2.863617 -2.3548584 -5.183502 -5.253174 -5.183502c-3.1518555 0 -5.216919 2.573639 -5.216919 5.2559814c0 1.2686768 0.47094727 2.5736084 1.5216064 3.624817c3.296814 3.298584 8.948486 0.97869873 8.948486 -3.6972961zm-15.723267 0c-0.036254883 -2.863617 -2.3548584 -5.183502 -5.253174 -5.183502c-3.1519165 0 -5.216919 2.573639 -5.216919 5.2559814c0 1.2686768 0.47094727 2.5736084 1.5216064 3.624817c3.296814 3.298584 8.948486 0.97869873 8.948486 -3.6972961z" fill-rule="evenodd"/><path fill="#000000" fill-opacity="0.0" d="m723.8649 168.02234l198.36224 0l0 115.1496l-198.36224 0z" fill-rule="evenodd"/><path fill="#000000" d="m802.0469 183.38234l0 -11.453125l4.28125 0q0.953125 0 1.71875 0.40625q0.765625 0.390625 1.21875 1.078125q0.453125 0.6875 0.453125 1.546875q0 0.890625 -0.4375 1.515625q-0.421875 0.625 -1.109375 0.9375l0 0.078125q0.859375 0.296875 1.40625 1.0q0.546875 0.703125 0.546875 1.671875q0 0.96875 -0.484375 1.6875q-0.484375 0.71875 -1.3125 1.125q-0.828125 0.40625 -1.796875 0.40625l-4.484375 0zm0.953125 -5.078125l0 -1.5625l3.25 0q0.5625 0 0.953125 -0.234375q0.390625 -0.234375 0.59375 -0.609375q0.21875 -0.375 0.21875 -0.765625q0 -0.40625 -0.203125 -0.765625q-0.203125 -0.359375 -0.59375 -0.59375q-0.375 -0.234375 -0.90625 -0.234375l-2.5 0l0 8.21875l2.71875 0q0.578125 0 0.984375 -0.234375q0.421875 -0.25 0.625 -0.640625q0.21875 -0.40625 0.21875 -0.84375q0 -0.46875 -0.21875 -0.859375q-0.21875 -0.390625 -0.65625 -0.625q-0.421875 -0.25 -1.015625 -0.25l-3.46875 0zm11.734802 5.328125q-1.5 0 -2.265625 -0.890625q-0.765625 -0.90625 -0.765625 -2.46875l0 -5.046875l1.734375 0l0 4.8125q0 1.03125 0.484375 1.53125q0.484375 0.484375 1.234375 0.484375q0.671875 0 1.140625 -0.34375q0.484375 -0.34375 0.75 -0.90625q0.265625 -0.5625 0.265625 -1.203125l0 -4.375l1.703125 0l0 8.15625l-1.609375 0l0 -1.109375l-0.09375 0q-0.234375 0.390625 -0.640625 0.703125q-0.390625 0.296875 -0.890625 0.46875q-0.484375 0.1875 -1.046875 0.1875zm6.4518433 -0.25l0 -8.15625l1.71875 0l0 8.15625l-1.71875 0zm0.859375 -9.359375q-0.484375 0 -0.828125 -0.34375q-0.34375 -0.34375 -0.34375 -0.828125q0 -0.5 0.34375 -0.828125q0.34375 -0.328125 0.828125 -0.328125q0.5 0 0.828125 0.328125q0.34375 0.328125 0.34375 0.828125q0 0.484375 -0.34375 0.828125q-0.328125 0.34375 -0.828125 0.34375zm3.031311 9.359375l0 -11.453125l1.71875 0l0 11.453125l-1.71875 0zm7.164734 0.25q-1.109375 0 -2.015625 -0.546875q-0.890625 -0.5625 -1.40625 -1.53125q-0.5 -0.984375 -0.5 -2.25q0 -1.265625 0.5 -2.234375q0.515625 -0.984375 1.40625 -1.546875q0.90625 -0.5625 2.015625 -0.5625q0.640625 0 1.140625 0.203125q0.515625 0.1875 0.890625 0.5q0.375 0.3125 0.59375 0.65625l0.09375 0l-0.09375 -1.125l0 -3.265625l1.703125 0l0 11.453125l-1.609375 0l0 -1.09375l-0.09375 0q-0.21875 0.34375 -0.59375 0.65625q-0.375 0.3125 -0.890625 0.5q-0.5 0.1875 -1.140625 0.1875zm0.25 -1.578125q0.640625 0 1.203125 -0.328125q0.578125 -0.34375 0.921875 -0.953125q0.34375 -0.625 0.34375 -1.46875q0 -0.84375 -0.34375 -1.453125q-0.34375 -0.625 -0.921875 -0.953125q-0.5625 -0.34375 -1.203125 -0.34375q-0.640625 0 -1.203125 0.34375q-0.5625 0.328125 -0.921875 0.953125q-0.34375 0.609375 -0.34375 1.453125q0 0.828125 0.34375 1.453125q0.359375 0.625 0.921875 0.96875q0.5625 0.328125 1.203125 0.328125zm9.010376 1.578125q-0.96875 0 -1.703125 -0.296875q-0.71875 -0.296875 -1.1875 -0.796875q-0.453125 -0.5 -0.671875 -1.09375l1.546875 -0.671875q0.28125 0.65625 0.8125 1.0q0.546875 0.34375 1.25 0.34375q0.640625 0 1.09375 -0.234375q0.46875 -0.234375 0.46875 -0.75q0 -0.34375 -0.21875 -0.5625q-0.203125 -0.21875 -0.5625 -0.359375q-0.359375 -0.140625 -0.828125 -0.25l-0.96875 -0.21875q-0.578125 -0.15625 -1.109375 -0.46875q-0.515625 -0.3125 -0.84375 -0.78125q-0.3125 -0.484375 -0.3125 -1.140625q0 -0.734375 0.421875 -1.265625q0.421875 -0.546875 1.140625 -0.828125q0.734375 -0.296875 1.5625 -0.296875q0.765625 0 1.390625 0.203125q0.640625 0.203125 1.109375 0.59375q0.46875 0.390625 0.75 0.96875l-1.5 0.671875q-0.265625 -0.546875 -0.734375 -0.75q-0.453125 -0.21875 -1.0 -0.21875q-0.609375 0 -1.015625 0.25q-0.40625 0.234375 -0.40625 0.640625q0 0.421875 0.359375 0.65625q0.359375 0.234375 0.890625 0.375l1.171875 0.296875q1.21875 0.296875 1.828125 0.921875q0.609375 0.609375 0.609375 1.5q0 0.78125 -0.453125 1.359375q-0.4375 0.578125 -1.203125 0.890625q-0.765625 0.3125 -1.6875 0.3125z" fill-rule="nonzero"/><path fill="#000000" fill-opacity="0.0" d="m36.198017 399.83878l198.36221 0l0 115.14963l-198.36221 0z" fill-rule="evenodd"/><path fill="#000000" d="m118.72395 415.1988l0 -11.453125l4.015625 0q1.0625 0 1.890625 0.453125q0.828125 0.4375 1.3125 1.234375q0.5 0.78125 0.5 1.8125q0 0.6875 -0.28125 1.3125q-0.28125 0.625 -0.8125 1.109375q-0.515625 0.484375 -1.265625 0.765625q-0.734375 0.265625 -1.671875 0.265625l-2.734375 0l0 -1.609375l3.015625 0q0.546875 0 0.984375 -0.234375q0.4375 -0.25 0.703125 -0.671875q0.28125 -0.421875 0.28125 -0.953125q0 -0.46875 -0.234375 -0.890625q-0.21875 -0.421875 -0.640625 -0.6875q-0.421875 -0.265625 -1.03125 -0.265625l-2.265625 0l0 9.8125l-1.765625 0zm2.65625 -5.234375l2.0 -0.03125l3.578125 5.171875l0 0.09375l-2.03125 0l-3.546875 -5.234375zm9.615646 5.484375q-1.5 0 -2.265625 -0.890625q-0.765625 -0.90625 -0.765625 -2.46875l0 -5.046875l1.734375 0l0 4.8125q0 1.03125 0.484375 1.53125q0.484375 0.484375 1.234375 0.484375q0.671875 0 1.140625 -0.34375q0.484375 -0.34375 0.75 -0.90625q0.265625 -0.5625 0.265625 -1.203125l0 -4.375l1.703125 0l0 8.15625l-1.609375 0l0 -1.109375l-0.09375 0q-0.234375 0.390625 -0.640625 0.703125q-0.390625 0.296875 -0.890625 0.46875q-0.484375 0.1875 -1.046875 0.1875zm6.326889 -0.25l0 -8.15625l1.625 0l0 1.109375l0.09375 0q0.359375 -0.578125 1.046875 -0.96875q0.703125 -0.40625 1.53125 -0.40625q1.5 0 2.25 0.890625q0.75 0.890625 0.75 2.375l0 5.15625l-1.703125 0l0 -4.921875q0 -1.0 -0.5 -1.453125q-0.5 -0.453125 -1.296875 -0.453125q-0.625 0 -1.09375 0.34375q-0.453125 0.34375 -0.71875 0.90625q-0.265625 0.546875 -0.265625 1.1875l0 4.390625l-1.71875 0zm12.168762 0.25q-0.96875 0 -1.703125 -0.296875q-0.71875 -0.296875 -1.1875 -0.796875q-0.453125 -0.5 -0.671875 -1.09375l1.546875 -0.671875q0.28125 0.65625 0.8125 1.0q0.546875 0.34375 1.25 0.34375q0.640625 0 1.09375 -0.234375q0.46875 -0.234375 0.46875 -0.75q0 -0.34375 -0.21875 -0.5625q-0.203125 -0.21875 -0.5625 -0.359375q-0.359375 -0.140625 -0.828125 -0.25l-0.96875 -0.21875q-0.578125 -0.15625 -1.109375 -0.46875q-0.515625 -0.3125 -0.84375 -0.78125q-0.3125 -0.484375 -0.3125 -1.140625q0 -0.734375 0.421875 -1.265625q0.421875 -0.546875 1.140625 -0.828125q0.734375 -0.296875 1.5625 -0.296875q0.765625 0 1.390625 0.203125q0.640625 0.203125 1.109375 0.59375q0.46875 0.390625 0.75 0.96875l-1.5 0.671875q-0.265625 -0.546875 -0.734375 -0.75q-0.453125 -0.21875 -1.0 -0.21875q-0.609375 0 -1.015625 0.25q-0.40625 0.234375 -0.40625 0.640625q0 0.421875 0.359375 0.65625q0.359375 0.234375 0.890625 0.375l1.171875 0.296875q1.21875 0.296875 1.828125 0.921875q0.609375 0.609375 0.609375 1.5q0 0.78125 -0.453125 1.359375q-0.4375 0.578125 -1.203125 0.890625q-0.765625 0.3125 -1.6875 0.3125z" fill-rule="nonzero"/><path fill="#000000" d="m98.57029 434.1988l0 -11.453125l1.71875 0l0 11.453125l-1.71875 0zm7.508499 0.25q-1.265625 0 -2.234375 -0.5625q-0.953125 -0.578125 -1.5 -1.5625q-0.53125 -0.984375 -0.53125 -2.203125q0 -1.21875 0.53125 -2.203125q0.546875 -0.984375 1.5 -1.5625q0.96875 -0.578125 2.234375 -0.578125q1.25 0 2.203125 0.59375q0.96875 0.578125 1.515625 1.5625q0.546875 0.96875 0.546875 2.1875q0 1.21875 -0.546875 2.203125q-0.546875 0.984375 -1.515625 1.5625q-0.953125 0.5625 -2.203125 0.5625zm0 -1.578125q0.671875 0 1.25 -0.328125q0.578125 -0.328125 0.9375 -0.9375q0.359375 -0.625 0.359375 -1.484375q0 -0.859375 -0.359375 -1.46875q-0.359375 -0.625 -0.9375 -0.953125q-0.578125 -0.328125 -1.25 -0.328125q-0.671875 0 -1.25 0.328125q-0.578125 0.328125 -0.953125 0.953125q-0.359375 0.609375 -0.359375 1.46875q0 0.859375 0.359375 1.484375q0.375 0.609375 0.953125 0.9375q0.59375 0.328125 1.25 0.328125zm9.617523 1.578125q-1.234375 0 -2.1875 -0.546875q-0.953125 -0.5625 -1.484375 -1.546875q-0.53125 -0.984375 -0.53125 -2.234375q0 -1.25 0.53125 -2.21875q0.53125 -0.984375 1.484375 -1.546875q0.953125 -0.578125 2.1875 -0.578125q1.359375 0 2.296875 0.609375q0.9375 0.609375 1.34375 1.65625l-1.578125 0.640625q-0.28125 -0.65625 -0.828125 -0.984375q-0.53125 -0.328125 -1.265625 -0.328125q-0.671875 0 -1.234375 0.34375q-0.5625 0.34375 -0.90625 0.953125q-0.328125 0.609375 -0.328125 1.453125q0 0.828125 0.328125 1.453125q0.34375 0.625 0.90625 0.96875q0.5625 0.328125 1.234375 0.328125q0.78125 0 1.328125 -0.34375q0.546875 -0.359375 0.84375 -1.0l1.546875 0.671875q-0.453125 0.96875 -1.390625 1.609375q-0.9375 0.640625 -2.296875 0.640625zm7.6452637 0q-0.875 0 -1.5625 -0.34375q-0.671875 -0.359375 -1.0625 -0.96875q-0.390625 -0.625 -0.390625 -1.421875q0 -0.875 0.453125 -1.484375q0.453125 -0.609375 1.21875 -0.921875q0.765625 -0.328125 1.703125 -0.328125q0.515625 0 0.953125 0.078125q0.4375 0.0625 0.765625 0.171875q0.328125 0.09375 0.515625 0.203125l0 -0.4375q0 -0.796875 -0.578125 -1.265625q-0.5625 -0.484375 -1.484375 -0.484375q-0.625 0 -1.1875 0.28125q-0.546875 0.265625 -0.890625 0.75l-1.1875 -0.90625q0.359375 -0.5 0.859375 -0.84375q0.5 -0.359375 1.125 -0.546875q0.640625 -0.203125 1.328125 -0.203125q1.78125 0 2.734375 0.875q0.96875 0.875 0.96875 2.4375l0 5.109375l-1.6875 0l0 -1.015625l-0.09375 0q-0.203125 0.328125 -0.5625 0.625q-0.359375 0.28125 -0.859375 0.453125q-0.484375 0.1875 -1.078125 0.1875zm0.3125 -1.40625q0.671875 0 1.1875 -0.3125q0.515625 -0.328125 0.796875 -0.84375q0.296875 -0.515625 0.296875 -1.125q-0.34375 -0.203125 -0.859375 -0.34375q-0.5 -0.140625 -1.0625 -0.140625q-1.046875 0 -1.5 0.421875q-0.453125 0.40625 -0.453125 1.03125q0 0.578125 0.4375 0.953125q0.4375 0.359375 1.15625 0.359375zm5.8922806 1.15625l0 -11.453125l1.71875 0l0 11.453125l-1.71875 0zm6.925888 -8.15625l5.140625 0l0 1.5l-5.140625 0l0 -1.5zm1.421875 5.78125l0 -8.09375l1.71875 0l0 7.734375q0 0.609375 0.25 0.9375q0.25 0.3125 0.84375 0.3125q0.28125 0 0.5 -0.078125q0.234375 -0.09375 0.453125 -0.234375l0 1.6875q-0.265625 0.109375 -0.578125 0.171875q-0.296875 0.0625 -0.703125 0.0625q-1.140625 0 -1.8125 -0.65625q-0.671875 -0.671875 -0.671875 -1.84375zm8.79538 2.625q-1.203125 0 -2.15625 -0.546875q-0.9375 -0.5625 -1.46875 -1.53125q-0.53125 -0.984375 -0.53125 -2.234375q0 -1.171875 0.5 -2.15625q0.515625 -1.0 1.4375 -1.59375q0.921875 -0.609375 2.125 -0.609375q1.265625 0 2.15625 0.546875q0.890625 0.546875 1.34375 1.5q0.46875 0.9375 0.46875 2.125q0 0.171875 -0.015625 0.3125q0 0.140625 -0.015625 0.21875l-7.03125 0l0 -1.296875l5.34375 0q-0.015625 -0.296875 -0.15625 -0.640625q-0.140625 -0.34375 -0.421875 -0.625q-0.265625 -0.296875 -0.6875 -0.46875q-0.40625 -0.1875 -0.96875 -0.1875q-0.703125 0 -1.25 0.359375q-0.546875 0.359375 -0.859375 1.0q-0.296875 0.640625 -0.296875 1.484375q0 0.921875 0.34375 1.546875q0.359375 0.625 0.9375 0.953125q0.578125 0.3125 1.25 0.3125q0.8125 0 1.359375 -0.375q0.5625 -0.375 0.890625 -0.9375l1.421875 0.6875q-0.53125 0.96875 -1.453125 1.5625q-0.90625 0.59375 -2.265625 0.59375zm8.530014 0q-0.96875 0 -1.703125 -0.296875q-0.71875 -0.296875 -1.1875 -0.796875q-0.453125 -0.5 -0.671875 -1.09375l1.546875 -0.671875q0.28125 0.65625 0.8125 1.0q0.546875 0.34375 1.25 0.34375q0.640625 0 1.09375 -0.234375q0.46875 -0.234375 0.46875 -0.75q0 -0.34375 -0.21875 -0.5625q-0.203125 -0.21875 -0.5625 -0.359375q-0.359375 -0.140625 -0.828125 -0.25l-0.96875 -0.21875q-0.578125 -0.15625 -1.109375 -0.46875q-0.515625 -0.3125 -0.84375 -0.78125q-0.3125 -0.484375 -0.3125 -1.140625q0 -0.734375 0.421875 -1.265625q0.421875 -0.546875 1.140625 -0.828125q0.734375 -0.296875 1.5625 -0.296875q0.765625 0 1.390625 0.203125q0.640625 0.203125 1.109375 0.59375q0.46875 0.390625 0.75 0.96875l-1.5 0.671875q-0.265625 -0.546875 -0.734375 -0.75q-0.453125 -0.21875 -1.0 -0.21875q-0.609375 0 -1.015625 0.25q-0.40625 0.234375 -0.40625 0.640625q0 0.421875 0.359375 0.65625q0.359375 0.234375 0.890625 0.375l1.171875 0.296875q1.21875 0.296875 1.828125 0.921875q0.609375 0.609375 0.609375 1.5q0 0.78125 -0.453125 1.359375q-0.4375 0.578125 -1.203125 0.890625q-0.765625 0.3125 -1.6875 0.3125zm4.2127686 -8.40625l5.1406097 0l0 1.5l-5.1406097 0l0 -1.5zm1.421875 5.78125l0 -8.09375l1.71875 0l0 7.734375q0 0.609375 0.25 0.9375q0.25 0.3125 0.84375 0.3125q0.28125 0 0.5 -0.078125q0.23435974 -0.09375 0.45310974 -0.234375l0 1.6875q-0.265625 0.109375 -0.57810974 0.171875q-0.296875 0.0625 -0.703125 0.0625q-1.140625 0 -1.8125 -0.65625q-0.671875 -0.671875 -0.671875 -1.84375zm8.525375 2.625q-0.96875 0 -1.703125 -0.296875q-0.71875 -0.296875 -1.1875 -0.796875q-0.453125 -0.5 -0.671875 -1.09375l1.546875 -0.671875q0.28125 0.65625 0.8125 1.0q0.546875 0.34375 1.25 0.34375q0.640625 0 1.09375 -0.234375q0.46875 -0.234375 0.46875 -0.75q0 -0.34375 -0.21875 -0.5625q-0.203125 -0.21875 -0.5625 -0.359375q-0.359375 -0.140625 -0.828125 -0.25l-0.96875 -0.21875q-0.578125 -0.15625 -1.109375 -0.46875q-0.515625 -0.3125 -0.84375 -0.78125q-0.3125 -0.484375 -0.3125 -1.140625q0 -0.734375 0.421875 -1.265625q0.421875 -0.546875 1.140625 -0.828125q0.734375 -0.296875 1.5625 -0.296875q0.765625 0 1.390625 0.203125q0.640625 0.203125 1.109375 0.59375q0.46875 0.390625 0.75 0.96875l-1.5 0.671875q-0.265625 -0.546875 -0.734375 -0.75q-0.453125 -0.21875 -1.0 -0.21875q-0.609375 0 -1.015625 0.25q-0.40625 0.234375 -0.40625 0.640625q0 0.421875 0.359375 0.65625q0.359375 0.234375 0.890625 0.375l1.171875 0.296875q1.21875 0.296875 1.828125 0.921875q0.609375 0.609375 0.609375 1.5q0 0.78125 -0.453125 1.359375q-0.4375 0.578125 -1.203125 0.890625q-0.765625 0.3125 -1.6875 0.3125z" fill-rule="nonzero"/><path fill="#000000" fill-opacity="0.0" d="m265.42032 399.83878l198.36221 0l0 115.14963l-198.36221 0z" fill-rule="evenodd"/><path fill="#000000" d="m347.94626 415.1988l0 -11.453125l4.015625 0q1.0625 0 1.890625 0.453125q0.828125 0.4375 1.3125 1.234375q0.5 0.78125 0.5 1.8125q0 0.6875 -0.28125 1.3125q-0.28125 0.625 -0.8125 1.109375q-0.515625 0.484375 -1.265625 0.765625q-0.734375 0.265625 -1.671875 0.265625l-2.734375 0l0 -1.609375l3.015625 0q0.546875 0 0.984375 -0.234375q0.4375 -0.25 0.703125 -0.671875q0.28125 -0.421875 0.28125 -0.953125q0 -0.46875 -0.234375 -0.890625q-0.21875 -0.421875 -0.640625 -0.6875q-0.421875 -0.265625 -1.03125 -0.265625l-2.265625 0l0 9.8125l-1.765625 0zm2.65625 -5.234375l2.0 -0.03125l3.578125 5.171875l0 0.09375l-2.03125 0l-3.546875 -5.234375zm9.615662 5.484375q-1.5 0 -2.265625 -0.890625q-0.765625 -0.90625 -0.765625 -2.46875l0 -5.046875l1.734375 0l0 4.8125q0 1.03125 0.484375 1.53125q0.484375 0.484375 1.234375 0.484375q0.671875 0 1.140625 -0.34375q0.484375 -0.34375 0.75 -0.90625q0.265625 -0.5625 0.265625 -1.203125l0 -4.375l1.703125 0l0 8.15625l-1.609375 0l0 -1.109375l-0.09375 0q-0.234375 0.390625 -0.640625 0.703125q-0.390625 0.296875 -0.890625 0.46875q-0.484375 0.1875 -1.046875 0.1875zm6.326874 -0.25l0 -8.15625l1.625 0l0 1.109375l0.09375 0q0.359375 -0.578125 1.046875 -0.96875q0.703125 -0.40625 1.53125 -0.40625q1.5 0 2.25 0.890625q0.75 0.890625 0.75 2.375l0 5.15625l-1.703125 0l0 -4.921875q0 -1.0 -0.5 -1.453125q-0.5 -0.453125 -1.296875 -0.453125q-0.625 0 -1.09375 0.34375q-0.453125 0.34375 -0.71875 0.90625q-0.265625 0.546875 -0.265625 1.1875l0 4.390625l-1.71875 0zm12.168762 0.25q-0.96875 0 -1.703125 -0.296875q-0.71875 -0.296875 -1.1875 -0.796875q-0.453125 -0.5 -0.671875 -1.09375l1.546875 -0.671875q0.28125 0.65625 0.8125 1.0q0.546875 0.34375 1.25 0.34375q0.640625 0 1.09375 -0.234375q0.46875 -0.234375 0.46875 -0.75q0 -0.34375 -0.21875 -0.5625q-0.203125 -0.21875 -0.5625 -0.359375q-0.359375 -0.140625 -0.828125 -0.25l-0.96875 -0.21875q-0.578125 -0.15625 -1.109375 -0.46875q-0.515625 -0.3125 -0.84375 -0.78125q-0.3125 -0.484375 -0.3125 -1.140625q0 -0.734375 0.421875 -1.265625q0.421875 -0.546875 1.140625 -0.828125q0.734375 -0.296875 1.5625 -0.296875q0.765625 0 1.390625 0.203125q0.640625 0.203125 1.109375 0.59375q0.46875 0.390625 0.75 0.96875l-1.5 0.671875q-0.265625 -0.546875 -0.734375 -0.75q-0.453125 -0.21875 -1.0 -0.21875q-0.609375 0 -1.015625 0.25q-0.40625 0.234375 -0.40625 0.640625q0 0.421875 0.359375 0.65625q0.359375 0.234375 0.890625 0.375l1.171875 0.296875q1.21875 0.296875 1.828125 0.921875q0.609375 0.609375 0.609375 1.5q0 0.78125 -0.453125 1.359375q-0.4375 0.578125 -1.203125 0.890625q-0.765625 0.3125 -1.6875 0.3125z" fill-rule="nonzero"/><path fill="#000000" d="m315.58197 434.1988l0 -8.15625l1.71875 0l0 8.15625l-1.71875 0zm0.859375 -9.359375q-0.484375 0 -0.828125 -0.34375q-0.34375 -0.34375 -0.34375 -0.828125q0 -0.5 0.34375 -0.828125q0.34375 -0.328125 0.828125 -0.328125q0.5 0 0.828125 0.328125q0.34375 0.328125 0.34375 0.828125q0 0.484375 -0.34375 0.828125q-0.328125 0.34375 -0.828125 0.34375zm3.015625 9.359375l0 -8.15625l1.625 0l0 1.109375l0.09375 0q0.359375 -0.578125 1.046875 -0.96875q0.703125 -0.40625 1.53125 -0.40625q1.5 0 2.25 0.890625q0.75 0.890625 0.75 2.375l0 5.15625l-1.703125 0l0 -4.921875q0 -1.0 -0.5 -1.453125q-0.5 -0.453125 -1.296875 -0.453125q-0.625 0 -1.09375 0.34375q-0.453125 0.34375 -0.71875 0.90625q-0.265625 0.546875 -0.265625 1.1875l0 4.390625l-1.71875 0zm12.168762 0.25q-0.96875 0 -1.703125 -0.296875q-0.71875 -0.296875 -1.1875 -0.796875q-0.453125 -0.5 -0.671875 -1.09375l1.546875 -0.671875q0.28125 0.65625 0.8125 1.0q0.546875 0.34375 1.25 0.34375q0.640625 0 1.09375 -0.234375q0.46875 -0.234375 0.46875 -0.75q0 -0.34375 -0.21875 -0.5625q-0.203125 -0.21875 -0.5625 -0.359375q-0.359375 -0.140625 -0.828125 -0.25l-0.96875 -0.21875q-0.578125 -0.15625 -1.109375 -0.46875q-0.515625 -0.3125 -0.84375 -0.78125q-0.3125 -0.484375 -0.3125 -1.140625q0 -0.734375 0.421875 -1.265625q0.421875 -0.546875 1.140625 -0.828125q0.734375 -0.296875 1.5625 -0.296875q0.765625 0 1.390625 0.203125q0.640625 0.203125 1.109375 0.59375q0.46875 0.390625 0.75 0.96875l-1.5 0.671875q-0.265625 -0.546875 -0.734375 -0.75q-0.453125 -0.21875 -1.0 -0.21875q-0.609375 0 -1.015625 0.25q-0.40625 0.234375 -0.40625 0.640625q0 0.421875 0.359375 0.65625q0.359375 0.234375 0.890625 0.375l1.171875 0.296875q1.21875 0.296875 1.828125 0.921875q0.609375 0.609375 0.609375 1.5q0 0.78125 -0.453125 1.359375q-0.4375 0.578125 -1.203125 0.890625q-0.765625 0.3125 -1.6875 0.3125zm4.2127686 -8.40625l5.140625 0l0 1.5l-5.140625 0l0 -1.5zm1.421875 5.78125l0 -8.09375l1.71875 0l0 7.734375q0 0.609375 0.25 0.9375q0.25 0.3125 0.84375 0.3125q0.28125 0 0.5 -0.078125q0.234375 -0.09375 0.453125 -0.234375l0 1.6875q-0.265625 0.109375 -0.578125 0.171875q-0.296875 0.0625 -0.703125 0.0625q-1.140625 0 -1.8125 -0.65625q-0.671875 -0.671875 -0.671875 -1.84375zm5.396637 2.375l0 -8.15625l1.625 0l0 1.203125l0.09375 0q0.1875 -0.421875 0.546875 -0.734375q0.359375 -0.328125 0.828125 -0.515625q0.484375 -0.203125 1.0 -0.203125q0.328125 0 0.5625 0.046875q0.234375 0.046875 0.421875 0.125l0 1.78125q-0.296875 -0.125 -0.609375 -0.203125q-0.3125 -0.078125 -0.65625 -0.078125q-0.609375 0 -1.078125 0.328125q-0.46875 0.328125 -0.75 0.875q-0.265625 0.546875 -0.265625 1.21875l0 4.3125l-1.71875 0zm9.369141 0.25q-1.5 0 -2.265625 -0.890625q-0.765625 -0.90625 -0.765625 -2.46875l0 -5.046875l1.734375 0l0 4.8125q0 1.03125 0.484375 1.53125q0.484375 0.484375 1.234375 0.484375q0.671875 0 1.140625 -0.34375q0.484375 -0.34375 0.75 -0.90625q0.265625 -0.5625 0.265625 -1.203125l0 -4.375l1.703125 0l0 8.15625l-1.609375 0l0 -1.109375l-0.09375 0q-0.234375 0.390625 -0.640625 0.703125q-0.390625 0.296875 -0.890625 0.46875q-0.484375 0.1875 -1.046875 0.1875zm6.3269043 -0.25l0 -8.15625l1.625 0l0 1.109375l0.09375 0q0.234375 -0.390625 0.625 -0.6875q0.390625 -0.3125 0.875 -0.5q0.484375 -0.1875 1.015625 -0.1875q0.90625 0 1.546875 0.4375q0.640625 0.4375 0.921875 1.09375q0.390625 -0.640625 1.078125 -1.078125q0.6875 -0.453125 1.6875 -0.453125q1.4375 0 2.140625 0.875q0.703125 0.875 0.703125 2.3125l0 5.234375l-1.71875 0l0 -4.9375q0 -1.0 -0.421875 -1.4375q-0.421875 -0.453125 -1.171875 -0.453125q-0.59375 0 -1.046875 0.328125q-0.4375 0.328125 -0.6875 0.890625q-0.25 0.546875 -0.25 1.234375l0 4.375l-1.71875 0l0 -4.9375q0 -0.984375 -0.4375 -1.4375q-0.421875 -0.453125 -1.203125 -0.453125q-0.5625 0 -1.0 0.34375q-0.4375 0.328125 -0.6875 0.890625q-0.25 0.546875 -0.25 1.234375l0 4.359375l-1.71875 0zm17.990784 0.25q-1.203125 0 -2.15625 -0.546875q-0.9375 -0.5625 -1.46875 -1.53125q-0.53125 -0.984375 -0.53125 -2.234375q0 -1.171875 0.5 -2.15625q0.515625 -1.0 1.4375 -1.59375q0.921875 -0.609375 2.125 -0.609375q1.265625 0 2.15625 0.546875q0.890625 0.546875 1.34375 1.5q0.46875 0.9375 0.46875 2.125q0 0.171875 -0.015625 0.3125q0 0.140625 -0.015625 0.21875l-7.03125 0l0 -1.296875l5.34375 0q-0.015625 -0.296875 -0.15625 -0.640625q-0.140625 -0.34375 -0.421875 -0.625q-0.265625 -0.296875 -0.6875 -0.46875q-0.40625 -0.1875 -0.96875 -0.1875q-0.703125 0 -1.25 0.359375q-0.546875 0.359375 -0.859375 1.0q-0.296875 0.640625 -0.296875 1.484375q0 0.921875 0.34375 1.546875q0.359375 0.625 0.9375 0.953125q0.578125 0.3125 1.25 0.3125q0.8125 0 1.359375 -0.375q0.5625 -0.375 0.890625 -0.9375l1.421875 0.6875q-0.53125 0.96875 -1.453125 1.5625q-0.90625 0.59375 -2.265625 0.59375zm5.481262 -0.25l0 -8.15625l1.625 0l0 1.109375l0.09375 0q0.359375 -0.578125 1.046875 -0.96875q0.703125 -0.40625 1.53125 -0.40625q1.5 0 2.25 0.890625q0.75 0.890625 0.75 2.375l0 5.15625l-1.703125 0l0 -4.921875q0 -1.0 -0.5 -1.453125q-0.5 -0.453125 -1.296875 -0.453125q-0.625 0 -1.09375 0.34375q-0.453125 0.34375 -0.71875 0.90625q-0.265625 0.546875 -0.265625 1.1875l0 4.390625l-1.71875 0zm8.317505 -8.15625l5.140625 0l0 1.5l-5.140625 0l0 -1.5zm1.421875 5.78125l0 -8.09375l1.71875 0l0 7.734375q0 0.609375 0.25 0.9375q0.25 0.3125 0.84375 0.3125q0.28125 0 0.5 -0.078125q0.234375 -0.09375 0.453125 -0.234375l0 1.6875q-0.265625 0.109375 -0.578125 0.171875q-0.296875 0.0625 -0.703125 0.0625q-1.140625 0 -1.8125 -0.65625q-0.671875 -0.671875 -0.671875 -1.84375zm8.79538 2.625q-1.203125 0 -2.15625 -0.546875q-0.9375 -0.5625 -1.46875 -1.53125q-0.53125 -0.984375 -0.53125 -2.234375q0 -1.171875 0.5 -2.15625q0.515625 -1.0 1.4375 -1.59375q0.921875 -0.609375 2.125 -0.609375q1.265625 0 2.15625 0.546875q0.890625 0.546875 1.34375 1.5q0.46875 0.9375 0.46875 2.125q0 0.171875 -0.015625 0.3125q0 0.140625 -0.015625 0.21875l-7.03125 0l0 -1.296875l5.34375 0q-0.015625 -0.296875 -0.15625 -0.640625q-0.140625 -0.34375 -0.421875 -0.625q-0.265625 -0.296875 -0.6875 -0.46875q-0.40625 -0.1875 -0.96875 -0.1875q-0.703125 0 -1.25 0.359375q-0.546875 0.359375 -0.859375 1.0q-0.296875 0.640625 -0.296875 1.484375q0 0.921875 0.34375 1.546875q0.359375 0.625 0.9375 0.953125q0.578125 0.3125 1.25 0.3125q0.8125 0 1.359375 -0.375q0.5625 -0.375 0.890625 -0.9375l1.421875 0.6875q-0.53125 0.96875 -1.453125 1.5625q-0.90625 0.59375 -2.265625 0.59375zm9.045624 0q-1.109375 0 -2.015625 -0.546875q-0.890625 -0.5625 -1.40625 -1.53125q-0.5 -0.984375 -0.5 -2.25q0 -1.265625 0.5 -2.234375q0.515625 -0.984375 1.40625 -1.546875q0.90625 -0.5625 2.015625 -0.5625q0.640625 0 1.140625 0.203125q0.515625 0.1875 0.890625 0.5q0.375 0.3125 0.59375 0.65625l0.09375 0l-0.09375 -1.125l0 -3.265625l1.703125 0l0 11.453125l-1.609375 0l0 -1.09375l-0.09375 0q-0.21875 0.34375 -0.59375 0.65625q-0.375 0.3125 -0.890625 0.5q-0.5 0.1875 -1.140625 0.1875zm0.25 -1.578125q0.640625 0 1.203125 -0.328125q0.578125 -0.34375 0.921875 -0.953125q0.34375 -0.625 0.34375 -1.46875q0 -0.84375 -0.34375 -1.453125q-0.34375 -0.625 -0.921875 -0.953125q-0.5625 -0.34375 -1.203125 -0.34375q-0.640625 0 -1.203125 0.34375q-0.5625 0.328125 -0.921875 0.953125q-0.34375 0.609375 -0.34375 1.453125q0 0.828125 0.34375 1.453125q0.359375 0.625 0.921875 0.96875q0.5625 0.328125 1.203125 0.328125z" fill-rule="nonzero"/><path fill="#000000" d="m346.45453 445.04254l5.140625 0l0 1.5l-5.140625 0l0 -1.5zm1.421875 5.78125l0 -8.09375l1.71875 0l0 7.734375q0 0.609375 0.25 0.9375q0.25 0.3125 0.84375 0.3125q0.28125 0 0.5 -0.078125q0.234375 -0.09375 0.453125 -0.234375l0 1.6875q-0.265625 0.109375 -0.578125 0.171875q-0.296875 0.0625 -0.703125 0.0625q-1.140625 0 -1.8125 -0.65625q-0.671875 -0.671875 -0.671875 -1.84375zm8.79538 2.625q-1.203125 0 -2.15625 -0.546875q-0.9375 -0.5625 -1.46875 -1.53125q-0.53125 -0.984375 -0.53125 -2.234375q0 -1.171875 0.5 -2.15625q0.515625 -1.0 1.4375 -1.59375q0.921875 -0.609375 2.125 -0.609375q1.265625 0 2.15625 0.546875q0.890625 0.546875 1.34375 1.5q0.46875 0.9375 0.46875 2.125q0 0.171875 -0.015625 0.3125q0 0.140625 -0.015625 0.21875l-7.03125 0l0 -1.296875l5.34375 0q-0.015625 -0.296875 -0.15625 -0.640625q-0.140625 -0.34375 -0.421875 -0.625q-0.265625 -0.296875 -0.6875 -0.46875q-0.40625 -0.1875 -0.96875 -0.1875q-0.703125 0 -1.25 0.359375q-0.546875 0.359375 -0.859375 1.0q-0.296875 0.640625 -0.296875 1.484375q0 0.921875 0.34375 1.546875q0.359375 0.625 0.9375 0.953125q0.578125 0.3125 1.25 0.3125q0.8125 0 1.359375 -0.375q0.5625 -0.375 0.890625 -0.9375l1.421875 0.6875q-0.53125 0.96875 -1.453125 1.5625q-0.90625 0.59375 -2.265625 0.59375zm8.529999 0q-0.96875 0 -1.703125 -0.296875q-0.71875 -0.296875 -1.1875 -0.796875q-0.453125 -0.5 -0.671875 -1.09375l1.546875 -0.671875q0.28125 0.65625 0.8125 1.0q0.546875 0.34375 1.25 0.34375q0.640625 0 1.09375 -0.234375q0.46875 -0.234375 0.46875 -0.75q0 -0.34375 -0.21875 -0.5625q-0.203125 -0.21875 -0.5625 -0.359375q-0.359375 -0.140625 -0.828125 -0.25l-0.96875 -0.21875q-0.578125 -0.15625 -1.109375 -0.46875q-0.515625 -0.3125 -0.84375 -0.78125q-0.3125 -0.484375 -0.3125 -1.140625q0 -0.734375 0.421875 -1.265625q0.421875 -0.546875 1.140625 -0.828125q0.734375 -0.296875 1.5625 -0.296875q0.765625 0 1.390625 0.203125q0.640625 0.203125 1.109375 0.59375q0.46875 0.390625 0.75 0.96875l-1.5 0.671875q-0.265625 -0.546875 -0.734375 -0.75q-0.453125 -0.21875 -1.0 -0.21875q-0.609375 0 -1.015625 0.25q-0.40625 0.234375 -0.40625 0.640625q0 0.421875 0.359375 0.65625q0.359375 0.234375 0.890625 0.375l1.171875 0.296875q1.21875 0.296875 1.828125 0.921875q0.609375 0.609375 0.609375 1.5q0 0.78125 -0.453125 1.359375q-0.4375 0.578125 -1.203125 0.890625q-0.765625 0.3125 -1.6875 0.3125zm4.2127686 -8.40625l5.140625 0l0 1.5l-5.140625 0l0 -1.5zm1.421875 5.78125l0 -8.09375l1.71875 0l0 7.734375q0 0.609375 0.25 0.9375q0.25 0.3125 0.84375 0.3125q0.28125 0 0.5 -0.078125q0.234375 -0.09375 0.453125 -0.234375l0 1.6875q-0.265625 0.109375 -0.578125 0.171875q-0.296875 0.0625 -0.703125 0.0625q-1.140625 0 -1.8125 -0.65625q-0.671875 -0.671875 -0.671875 -1.84375zm8.525391 2.625q-0.96875 0 -1.703125 -0.296875q-0.71875 -0.296875 -1.1875 -0.796875q-0.453125 -0.5 -0.671875 -1.09375l1.546875 -0.671875q0.28125 0.65625 0.8125 1.0q0.546875 0.34375 1.25 0.34375q0.640625 0 1.09375 -0.234375q0.46875 -0.234375 0.46875 -0.75q0 -0.34375 -0.21875 -0.5625q-0.203125 -0.21875 -0.5625 -0.359375q-0.359375 -0.140625 -0.828125 -0.25l-0.96875 -0.21875q-0.578125 -0.15625 -1.109375 -0.46875q-0.515625 -0.3125 -0.84375 -0.78125q-0.3125 -0.484375 -0.3125 -1.140625q0 -0.734375 0.421875 -1.265625q0.421875 -0.546875 1.140625 -0.828125q0.734375 -0.296875 1.5625 -0.296875q0.765625 0 1.390625 0.203125q0.640625 0.203125 1.109375 0.59375q0.46875 0.390625 0.75 0.96875l-1.5 0.671875q-0.265625 -0.546875 -0.734375 -0.75q-0.453125 -0.21875 -1.0 -0.21875q-0.609375 0 -1.015625 0.25q-0.40625 0.234375 -0.40625 0.640625q0 0.421875 0.359375 0.65625q0.359375 0.234375 0.890625 0.375l1.171875 0.296875q1.21875 0.296875 1.828125 0.921875q0.609375 0.609375 0.609375 1.5q0 0.78125 -0.453125 1.359375q-0.4375 0.578125 -1.203125 0.890625q-0.765625 0.3125 -1.6875 0.3125z" fill-rule="nonzero"/><path fill="#000000" fill-opacity="0.0" d="m443.84647 341.64923l64.97638 0" fill-rule="evenodd"/><path stroke="#083042" stroke-width="3.0" stroke-linejoin="round" stroke-linecap="butt" d="m443.84647 341.64923l46.97638 0" fill-rule="evenodd"/><path fill="#083042" stroke="#083042" stroke-width="3.0" stroke-linecap="butt" d="m490.82285 346.60443l13.614288 -4.9552l-13.614288 -4.9552z" fill-rule="evenodd"/><path fill="#000000" fill-opacity="0.0" d="m490.182 399.83878l198.36218 0l0 115.14963l-198.36218 0z" fill-rule="evenodd"/><path fill="#000000" d="m573.7505 417.37067q-0.484375 -0.546875 -0.984375 -1.3125q-0.5 -0.765625 -0.921875 -1.703125q-0.421875 -0.953125 -0.6875 -2.03125q-0.25 -1.078125 -0.25 -2.28125q0 -1.203125 0.25 -2.28125q0.265625 -1.078125 0.6875 -2.015625q0.421875 -0.953125 0.921875 -1.71875q0.5 -0.765625 0.984375 -1.3125l1.28125 0.90625q-0.6875 0.8125 -1.234375 1.84375q-0.546875 1.015625 -0.859375 2.171875q-0.3125 1.15625 -0.3125 2.40625q0 1.25 0.3125 2.421875q0.3125 1.15625 0.859375 2.171875q0.546875 1.015625 1.234375 1.84375l-1.28125 0.890625zm6.3309937 -1.921875q-1.203125 0 -2.15625 -0.546875q-0.9375 -0.5625 -1.46875 -1.53125q-0.53125 -0.984375 -0.53125 -2.234375q0 -1.171875 0.5 -2.15625q0.515625 -1.0 1.4375 -1.59375q0.921875 -0.609375 2.125 -0.609375q1.265625 0 2.15625 0.546875q0.890625 0.546875 1.34375 1.5q0.46875 0.9375 0.46875 2.125q0 0.171875 -0.015625 0.3125q0 0.140625 -0.015625 0.21875l-7.03125 0l0 -1.296875l5.34375 0q-0.015625 -0.296875 -0.15625 -0.640625q-0.140625 -0.34375 -0.421875 -0.625q-0.265625 -0.296875 -0.6875 -0.46875q-0.40625 -0.1875 -0.96875 -0.1875q-0.703125 0 -1.25 0.359375q-0.546875 0.359375 -0.859375 1.0q-0.296875 0.640625 -0.296875 1.484375q0 0.921875 0.34375 1.546875q0.359375 0.625 0.9375 0.953125q0.578125 0.3125 1.25 0.3125q0.8125 0 1.359375 -0.375q0.5625 -0.375 0.890625 -0.9375l1.421875 0.6875q-0.53125 0.96875 -1.453125 1.5625q-0.90625 0.59375 -2.265625 0.59375zm4.678772 -8.40625l5.140625 0l0 1.5l-5.140625 0l0 -1.5zm1.421875 5.78125l0 -8.09375l1.71875 0l0 7.734375q0 0.609375 0.25 0.9375q0.25 0.3125 0.84375 0.3125q0.28125 0 0.5 -0.078125q0.234375 -0.09375 0.453125 -0.234375l0 1.6875q-0.265625 0.109375 -0.578125 0.171875q-0.296875 0.0625 -0.703125 0.0625q-1.140625 0 -1.8125 -0.65625q-0.671875 -0.671875 -0.671875 -1.84375zm8.842224 2.625q-1.234375 0 -2.1875 -0.546875q-0.953125 -0.5625 -1.484375 -1.546875q-0.53125 -0.984375 -0.53125 -2.234375q0 -1.25 0.53125 -2.21875q0.53125 -0.984375 1.484375 -1.546875q0.953125 -0.578125 2.1875 -0.578125q1.359375 0 2.296875 0.609375q0.9375 0.609375 1.34375 1.65625l-1.578125 0.640625q-0.28125 -0.65625 -0.828125 -0.984375q-0.53125 -0.328125 -1.265625 -0.328125q-0.671875 0 -1.234375 0.34375q-0.5625 0.34375 -0.90625 0.953125q-0.328125 0.609375 -0.328125 1.453125q0 0.828125 0.328125 1.453125q0.34375 0.625 0.90625 0.96875q0.5625 0.328125 1.234375 0.328125q0.78125 0 1.328125 -0.34375q0.546875 -0.359375 0.84375 -1.0l1.546875 0.671875q-0.453125 0.96875 -1.390625 1.609375q-0.9375 0.640625 -2.296875 0.640625zm6.256531 -0.15625q-0.515625 0 -0.875 -0.34375q-0.34375 -0.359375 -0.34375 -0.875q0 -0.46875 0.34375 -0.8125q0.359375 -0.359375 0.875 -0.359375q0.5 0 0.84375 0.359375q0.359375 0.34375 0.359375 0.8125q0 0.515625 -0.359375 0.875q-0.34375 0.34375 -0.84375 0.34375zm3.6920166 2.078125l-1.28125 -0.890625q0.671875 -0.828125 1.21875 -1.84375q0.5625 -1.015625 0.875 -2.171875q0.3125 -1.171875 0.3125 -2.421875q0 -1.25 -0.3125 -2.40625q-0.3125 -1.15625 -0.875 -2.171875q-0.546875 -1.03125 -1.21875 -1.84375l1.28125 -0.90625q0.640625 0.71875 1.296875 1.84375q0.65625 1.125 1.09375 2.515625q0.453125 1.375 0.453125 2.96875q0 1.203125 -0.265625 2.28125q-0.25 1.078125 -0.671875 2.03125q-0.40625 0.9375 -0.921875 1.703125q-0.5 0.765625 -0.984375 1.3125z" fill-rule="nonzero"/><path fill="#000000" fill-opacity="0.0" d="m219.06393 341.7394l64.97638 0" fill-rule="evenodd"/><path stroke="#083042" stroke-width="3.0" stroke-linejoin="round" stroke-linecap="butt" d="m219.06393 341.7394l46.97638 0" fill-rule="evenodd"/><path fill="#083042" stroke="#083042" stroke-width="3.0" stroke-linecap="butt" d="m266.0403 346.6946l13.614288 -4.9552l-13.614288 -4.9552z" fill-rule="evenodd"/><path fill="#000000" fill-opacity="0.0" d="m673.7166 341.29193l64.97638 0" fill-rule="evenodd"/><path stroke="#083042" stroke-width="3.0" stroke-linejoin="round" stroke-linecap="butt" d="m673.7166 341.29193l46.97638 0" fill-rule="evenodd"/><path fill="#083042" stroke="#083042" stroke-width="3.0" stroke-linecap="butt" d="m720.693 346.24713l13.614319 -4.9552l-13.614319 -4.9552z" fill-rule="evenodd"/><path fill="#000000" fill-opacity="0.0" d="m723.8649 399.83878l198.36224 0l0 115.14963l-198.36224 0z" fill-rule="evenodd"/><path fill="#000000" d="m798.389 415.4488q-1.296875 0 -2.265625 -0.5625q-0.96875 -0.5625 -1.515625 -1.609375q-0.53125 -1.046875 -0.53125 -2.484375l0 -7.046875l1.734375 0l0 7.15625q0 0.828125 0.28125 1.484375q0.296875 0.65625 0.875 1.03125q0.578125 0.375 1.4375 0.375q0.84375 0 1.421875 -0.375q0.578125 -0.375 0.859375 -1.03125q0.296875 -0.65625 0.296875 -1.484375l0 -7.15625l1.75 0l0 7.046875q0 1.375 -0.53125 2.4375q-0.515625 1.0625 -1.484375 1.640625q-0.96875 0.578125 -2.328125 0.578125zm6.3774414 3.203125l0 -11.609375l1.625 0l0 1.09375l0.09375 0q0.21875 -0.34375 0.59375 -0.65625q0.390625 -0.3125 0.890625 -0.5q0.515625 -0.203125 1.140625 -0.203125q1.125 0 2.0 0.5625q0.875 0.5625 1.390625 1.546875q0.53125 0.96875 0.53125 2.234375q0 1.265625 -0.53125 2.25q-0.515625 0.96875 -1.390625 1.53125q-0.875 0.546875 -2.0 0.546875q-0.921875 0 -1.609375 -0.40625q-0.6875 -0.421875 -1.015625 -0.9375l-0.09375 0l0.09375 1.140625l0 3.40625l-1.71875 0zm4.09375 -4.78125q0.640625 0 1.203125 -0.328125q0.5625 -0.34375 0.90625 -0.96875q0.34375 -0.625 0.34375 -1.453125q0 -0.84375 -0.34375 -1.453125q-0.34375 -0.625 -0.90625 -0.953125q-0.5625 -0.34375 -1.203125 -0.34375q-0.640625 0 -1.203125 0.34375q-0.5625 0.328125 -0.921875 0.953125q-0.34375 0.609375 -0.34375 1.453125q0 0.84375 0.34375 1.46875q0.359375 0.609375 0.921875 0.953125q0.5625 0.328125 1.203125 0.328125zm5.6171265 1.328125l0 -11.453125l1.71875 0l0 11.453125l-1.71875 0zm7.508484 0.25q-1.265625 0 -2.234375 -0.5625q-0.953125 -0.578125 -1.5 -1.5625q-0.53125 -0.984375 -0.53125 -2.203125q0 -1.21875 0.53125 -2.203125q0.546875 -0.984375 1.5 -1.5625q0.96875 -0.578125 2.234375 -0.578125q1.25 0 2.203125 0.59375q0.96875 0.578125 1.515625 1.5625q0.546875 0.96875 0.546875 2.1875q0 1.21875 -0.546875 2.203125q-0.546875 0.984375 -1.515625 1.5625q-0.953125 0.5625 -2.203125 0.5625zm0 -1.578125q0.671875 0 1.25 -0.328125q0.578125 -0.328125 0.9375 -0.9375q0.359375 -0.625 0.359375 -1.484375q0 -0.859375 -0.359375 -1.46875q-0.359375 -0.625 -0.9375 -0.953125q-0.578125 -0.328125 -1.25 -0.328125q-0.671875 0 -1.25 0.328125q-0.578125 0.328125 -0.953125 0.953125q-0.359375 0.609375 -0.359375 1.46875q0 0.859375 0.359375 1.484375q0.375 0.609375 0.953125 0.9375q0.59375 0.328125 1.25 0.328125zm8.398804 1.578125q-0.875 0 -1.5625 -0.34375q-0.671875 -0.359375 -1.0625 -0.96875q-0.390625 -0.625 -0.390625 -1.421875q0 -0.875 0.453125 -1.484375q0.453125 -0.609375 1.21875 -0.921875q0.765625 -0.328125 1.703125 -0.328125q0.515625 0 0.953125 0.078125q0.4375 0.0625 0.765625 0.171875q0.328125 0.09375 0.515625 0.203125l0 -0.4375q0 -0.796875 -0.578125 -1.265625q-0.5625 -0.484375 -1.484375 -0.484375q-0.625 0 -1.1875 0.28125q-0.546875 0.265625 -0.890625 0.75l-1.1875 -0.90625q0.359375 -0.5 0.859375 -0.84375q0.5 -0.359375 1.125 -0.546875q0.640625 -0.203125 1.328125 -0.203125q1.78125 0 2.734375 0.875q0.96875 0.875 0.96875 2.4375l0 5.109375l-1.6875 0l0 -1.015625l-0.09375 0q-0.203125 0.328125 -0.5625 0.625q-0.359375 0.28125 -0.859375 0.453125q-0.484375 0.1875 -1.078125 0.1875zm0.3125 -1.40625q0.671875 0 1.1875 -0.3125q0.515625 -0.328125 0.796875 -0.84375q0.296875 -0.515625 0.296875 -1.125q-0.34375 -0.203125 -0.859375 -0.34375q-0.5 -0.140625 -1.0625 -0.140625q-1.046875 0 -1.5 0.421875q-0.453125 0.40625 -0.453125 1.03125q0 0.578125 0.4375 0.953125q0.4375 0.359375 1.15625 0.359375zm9.281006 1.40625q-1.109375 0 -2.015625 -0.546875q-0.890625 -0.5625 -1.40625 -1.53125q-0.5 -0.984375 -0.5 -2.25q0 -1.265625 0.5 -2.234375q0.515625 -0.984375 1.40625 -1.546875q0.90625 -0.5625 2.015625 -0.5625q0.640625 0 1.140625 0.203125q0.515625 0.1875 0.890625 0.5q0.375 0.3125 0.59375 0.65625l0.09375 0l-0.09375 -1.125l0 -3.265625l1.703125 0l0 11.453125l-1.609375 0l0 -1.09375l-0.09375 0q-0.21875 0.34375 -0.59375 0.65625q-0.375 0.3125 -0.890625 0.5q-0.5 0.1875 -1.140625 0.1875zm0.25 -1.578125q0.640625 0 1.203125 -0.328125q0.578125 -0.34375 0.921875 -0.953125q0.34375 -0.625 0.34375 -1.46875q0 -0.84375 -0.34375 -1.453125q-0.34375 -0.625 -0.921875 -0.953125q-0.5625 -0.34375 -1.203125 -0.34375q-0.640625 0 -1.203125 0.34375q-0.5625 0.328125 -0.921875 0.953125q-0.34375 0.609375 -0.34375 1.453125q0 0.828125 0.34375 1.453125q0.359375 0.625 0.921875 0.96875q0.5625 0.328125 1.203125 0.328125zm9.010376 1.578125q-0.96875 0 -1.703125 -0.296875q-0.71875 -0.296875 -1.1875 -0.796875q-0.453125 -0.5 -0.671875 -1.09375l1.546875 -0.671875q0.28125 0.65625 0.8125 1.0q0.546875 0.34375 1.25 0.34375q0.640625 0 1.09375 -0.234375q0.46875 -0.234375 0.46875 -0.75q0 -0.34375 -0.21875 -0.5625q-0.203125 -0.21875 -0.5625 -0.359375q-0.359375 -0.140625 -0.828125 -0.25l-0.96875 -0.21875q-0.578125 -0.15625 -1.109375 -0.46875q-0.515625 -0.3125 -0.84375 -0.78125q-0.3125 -0.484375 -0.3125 -1.140625q0 -0.734375 0.421875 -1.265625q0.421875 -0.546875 1.140625 -0.828125q0.734375 -0.296875 1.5625 -0.296875q0.765625 0 1.390625 0.203125q0.640625 0.203125 1.109375 0.59375q0.46875 0.390625 0.75 0.96875l-1.5 0.671875q-0.265625 -0.546875 -0.734375 -0.75q-0.453125 -0.21875 -1.0 -0.21875q-0.609375 0 -1.015625 0.25q-0.40625 0.234375 -0.40625 0.640625q0 0.421875 0.359375 0.65625q0.359375 0.234375 0.890625 0.375l1.171875 0.296875q1.21875 0.296875 1.828125 0.921875q0.609375 0.609375 0.609375 1.5q0 0.78125 -0.453125 1.359375q-0.4375 0.578125 -1.203125 0.890625q-0.765625 0.3125 -1.6875 0.3125z" fill-rule="nonzero"/><path fill="#000000" d="m798.85364 434.1988l0 -8.15625l1.625 0l0 1.203125l0.09375 0q0.1875 -0.421875 0.546875 -0.734375q0.359375 -0.328125 0.828125 -0.515625q0.484375 -0.203125 1.0 -0.203125q0.328125 0 0.5625 0.046875q0.234375 0.046875 0.421875 0.125l0 1.78125q-0.296875 -0.125 -0.609375 -0.203125q-0.3125 -0.078125 -0.65625 -0.078125q-0.609375 0 -1.078125 0.328125q-0.46875 0.328125 -0.75 0.875q-0.265625 0.546875 -0.265625 1.21875l0 4.3125l-1.71875 0zm9.654785 0.25q-1.203125 0 -2.15625 -0.546875q-0.9375 -0.5625 -1.46875 -1.53125q-0.53125 -0.984375 -0.53125 -2.234375q0 -1.171875 0.5 -2.15625q0.515625 -1.0 1.4375 -1.59375q0.921875 -0.609375 2.125 -0.609375q1.265625 0 2.15625 0.546875q0.890625 0.546875 1.34375 1.5q0.46875 0.9375 0.46875 2.125q0 0.171875 -0.015625 0.3125q0 0.140625 -0.015625 0.21875l-7.03125 0l0 -1.296875l5.34375 0q-0.015625 -0.296875 -0.15625 -0.640625q-0.140625 -0.34375 -0.421875 -0.625q-0.265625 -0.296875 -0.6875 -0.46875q-0.40625 -0.1875 -0.96875 -0.1875q-0.703125 0 -1.25 0.359375q-0.546875 0.359375 -0.859375 1.0q-0.296875 0.640625 -0.296875 1.484375q0 0.921875 0.34375 1.546875q0.359375 0.625 0.9375 0.953125q0.578125 0.3125 1.25 0.3125q0.8125 0 1.359375 -0.375q0.5625 -0.375 0.890625 -0.9375l1.421875 0.6875q-0.53125 0.96875 -1.453125 1.5625q-0.90625 0.59375 -2.265625 0.59375zm8.529968 0q-0.96875 0 -1.703125 -0.296875q-0.71875 -0.296875 -1.1875 -0.796875q-0.453125 -0.5 -0.671875 -1.09375l1.546875 -0.671875q0.28125 0.65625 0.8125 1.0q0.546875 0.34375 1.25 0.34375q0.640625 0 1.09375 -0.234375q0.46875 -0.234375 0.46875 -0.75q0 -0.34375 -0.21875 -0.5625q-0.203125 -0.21875 -0.5625 -0.359375q-0.359375 -0.140625 -0.828125 -0.25l-0.96875 -0.21875q-0.578125 -0.15625 -1.109375 -0.46875q-0.515625 -0.3125 -0.84375 -0.78125q-0.3125 -0.484375 -0.3125 -1.140625q0 -0.734375 0.421875 -1.265625q0.421875 -0.546875 1.140625 -0.828125q0.734375 -0.296875 1.5625 -0.296875q0.765625 0 1.390625 0.203125q0.640625 0.203125 1.109375 0.59375q0.46875 0.390625 0.75 0.96875l-1.5 0.671875q-0.265625 -0.546875 -0.734375 -0.75q-0.453125 -0.21875 -1.0 -0.21875q-0.609375 0 -1.015625 0.25q-0.40625 0.234375 -0.40625 0.640625q0 0.421875 0.359375 0.65625q0.359375 0.234375 0.890625 0.375l1.171875 0.296875q1.21875 0.296875 1.828125 0.921875q0.609375 0.609375 0.609375 1.5q0 0.78125 -0.453125 1.359375q-0.4375 0.578125 -1.203125 0.890625q-0.765625 0.3125 -1.6875 0.3125zm7.8084106 0q-1.5 0 -2.265625 -0.890625q-0.765625 -0.90625 -0.765625 -2.46875l0 -5.046875l1.734375 0l0 4.8125q0 1.03125 0.484375 1.53125q0.484375 0.484375 1.234375 0.484375q0.671875 0 1.140625 -0.34375q0.484375 -0.34375 0.75 -0.90625q0.265625 -0.5625 0.265625 -1.203125l0 -4.375l1.703125 0l0 8.15625l-1.609375 0l0 -1.109375l-0.09375 0q-0.234375 0.390625 -0.640625 0.703125q-0.390625 0.296875 -0.890625 0.46875q-0.484375 0.1875 -1.046875 0.1875zm6.3425293 -0.25l0 -11.453125l1.71875 0l0 11.453125l-1.71875 0zm3.277893 -8.15625l5.140625 0l0 1.5l-5.140625 0l0 -1.5zm1.421875 5.78125l0 -8.09375l1.71875 0l0 7.734375q0 0.609375 0.25 0.9375q0.25 0.3125 0.84375 0.3125q0.28125 0 0.5 -0.078125q0.234375 -0.09375 0.453125 -0.234375l0 1.6875q-0.265625 0.109375 -0.578125 0.171875q-0.296875 0.0625 -0.703125 0.0625q-1.140625 0 -1.8125 -0.65625q-0.671875 -0.671875 -0.671875 -1.84375zm8.525391 2.625q-0.96875 0 -1.703125 -0.296875q-0.71875 -0.296875 -1.1875 -0.796875q-0.453125 -0.5 -0.671875 -1.09375l1.546875 -0.671875q0.28125 0.65625 0.8125 1.0q0.546875 0.34375 1.25 0.34375q0.640625 0 1.09375 -0.234375q0.46875 -0.234375 0.46875 -0.75q0 -0.34375 -0.21875 -0.5625q-0.203125 -0.21875 -0.5625 -0.359375q-0.359375 -0.140625 -0.828125 -0.25l-0.96875 -0.21875q-0.578125 -0.15625 -1.109375 -0.46875q-0.515625 -0.3125 -0.84375 -0.78125q-0.3125 -0.484375 -0.3125 -1.140625q0 -0.734375 0.421875 -1.265625q0.421875 -0.546875 1.140625 -0.828125q0.734375 -0.296875 1.5625 -0.296875q0.765625 0 1.390625 0.203125q0.640625 0.203125 1.109375 0.59375q0.46875 0.390625 0.75 0.96875l-1.5 0.671875q-0.265625 -0.546875 -0.734375 -0.75q-0.453125 -0.21875 -1.0 -0.21875q-0.609375 0 -1.015625 0.25q-0.40625 0.234375 -0.40625 0.640625q0 0.421875 0.359375 0.65625q0.359375 0.234375 0.890625 0.375l1.171875 0.296875q1.21875 0.296875 1.828125 0.921875q0.609375 0.609375 0.609375 1.5q0 0.78125 -0.453125 1.359375q-0.4375 0.578125 -1.203125 0.890625q-0.765625 0.3125 -1.6875 0.3125z" fill-rule="nonzero"/><path fill="#000000" fill-opacity="0.0" d="m881.9073 107.01098l28.421814 0l0 162.18652l-881.02203 0l0 73.08209l42.627644 0" fill-rule="evenodd"/><path stroke="#083042" stroke-width="3.0" stroke-linejoin="round" stroke-linecap="butt" d="m881.9073 107.01098l28.421753 0l0 162.18652l-881.022 0l0 73.08209l24.62764 0" fill-rule="evenodd"/><path fill="#083042" stroke="#083042" stroke-width="3.0" stroke-linecap="butt" d="m53.934727 347.2348l13.614292 -4.9552l-13.614292 -4.9552z" fill-rule="evenodd"/></g></svg>